<svg width="224" height="228" viewBox="0 0 224 228" fill="none" xmlns="http://www.w3.org/2000/svg">
<path d="M81.2644 32.6428L83.0179 38.5295L86.7078 31.0154L89.1275 30.2936L85.9574 36.7069L93.0875 42.3055L90.7499 43.0052L85.0739 38.4777L83.7924 41.1186L84.8769 44.7551L82.974 45.3237L79.3615 33.2114L81.2644 32.6428Z" fill="#DB5D5D"/>
<path d="M100.453 41.3008L99.1043 28.7359L101.08 28.5221L102.428 41.087L100.453 41.3008Z" fill="#DB5D5D"/>
<path d="M110.829 27.9797L120.371 28.5794L120.258 30.3785L116.481 30.1428L115.801 40.9463L113.818 40.8317L114.498 30.0282L110.717 29.7788L110.829 27.9797Z" fill="#DB5D5D"/>
<path d="M140.283 33.1752L136.743 45.303L134.84 44.7485L136.388 39.4597L130.406 37.7081L128.858 42.9968L126.955 42.4424L130.495 30.3147L132.398 30.8691L130.9 35.9902L136.882 37.7419L138.38 32.6208L140.283 33.1752Z" fill="#DB5D5D"/>
<path d="M160.387 55.99C160.377 56.0658 160.376 56.169 160.381 56.2996C160.392 56.4216 160.43 56.617 160.508 56.8823C160.587 57.1475 160.71 57.3346 160.886 57.471C160.933 57.5097 160.99 57.5311 161.039 57.5475C161.087 57.5639 161.136 57.5803 161.175 57.5916C161.215 57.603 161.229 57.5993 161.242 57.5957L160.278 58.9259C160.046 58.8266 159.832 58.7149 159.639 58.5686C159.338 58.3483 159.112 58.0563 158.946 57.6825C158.78 57.3086 158.696 56.9936 158.698 56.7287L158.7 56.3245C158.582 56.3488 158.405 56.3742 158.188 56.3881C157.972 56.4021 157.567 56.3418 156.995 56.2087C156.415 56.0705 155.89 55.8369 155.408 55.489C154.495 54.8233 153.927 54.0434 153.711 53.1545C153.494 52.2655 153.641 51.4702 154.14 50.7859C154.391 50.4325 154.714 50.133 155.097 49.8909C155.48 49.6489 155.845 49.4776 156.192 49.3772C156.54 49.2768 156.886 49.1987 157.203 49.1504C157.521 49.102 157.778 49.0771 157.971 49.0842L158.276 49.0979C158.247 48.9075 158.212 48.6673 158.189 48.365C158.158 48.0577 158.178 47.5827 158.244 46.9263C158.311 46.2699 158.467 45.7582 158.721 45.4186C159.197 44.7553 159.835 44.3714 160.628 44.2617C161.42 44.1521 162.172 44.3544 162.9 44.8788C163.61 45.3931 164.047 46.0393 164.203 46.8123C164.359 47.5853 164.228 48.2738 163.792 48.8675C163.488 49.294 163.014 49.6339 162.384 49.8836C161.753 50.1333 161.205 50.2801 160.736 50.3103L160.001 50.3605L160.233 54.2108C160.969 53.9181 161.612 53.3862 162.175 52.6113L163.488 53.5661C163.111 54.0781 162.67 54.5413 162.147 54.9456C161.629 55.3413 161.208 55.6305 160.88 55.777L160.387 55.99ZM156.349 54.1798C156.65 54.4001 156.986 54.5595 157.353 54.6669C157.728 54.7792 158.026 54.8241 158.251 54.8151L158.571 54.8029L158.363 50.6306C158.224 50.6312 158.035 50.6378 157.8 50.6641C157.565 50.6904 157.212 50.7996 156.739 50.9778C156.265 51.156 155.913 51.4044 155.693 51.7057C155.399 52.1148 155.298 52.531 155.398 52.9593C155.498 53.3875 155.811 53.7882 156.349 54.1798ZM162.276 48.0039C162.492 47.7113 162.56 47.392 162.5 47.0559C162.439 46.7199 162.241 46.4205 161.923 46.1902C161.595 45.955 161.264 45.8677 160.915 45.9097C160.567 45.9516 160.291 46.1283 160.076 46.4208C159.92 46.6315 159.829 46.9495 159.813 47.3574C159.798 47.7653 159.807 48.1297 159.869 48.4434L159.968 48.8941C160.09 48.8834 160.262 48.8668 160.471 48.8254C160.68 48.784 160.995 48.6996 161.417 48.5498C161.839 48.3999 162.12 48.2146 162.276 48.0039Z" fill="#DB5D5D"/>
<path d="M183.557 65.431L178.504 68.9282L186.793 70.113L188.232 72.1939L181.151 71.1625L178.039 79.6816L176.65 77.6756L179.187 70.8739L176.278 70.4791L173.156 72.6367L172.028 71.0012L182.419 63.8129L183.557 65.431Z" fill="#DB5D5D"/>
<path d="M181.264 86.3481L192.791 81.1821L193.599 82.9916L182.072 88.1576L181.264 86.3481Z" fill="#DB5D5D"/>
<path d="M199.623 102.216L200.069 104.152L187.76 107.003L187.379 105.336L194.666 96.4246L185.791 98.4795L185.346 96.5436L197.655 93.6931L198.036 95.3601L190.735 104.275L199.623 102.216Z" fill="#DB5D5D"/>
<path d="M41.6818 159.078L40.491 156.989L45.3662 154.2L46.5004 156.186C46.7237 156.582 46.7891 156.99 46.6914 157.42C46.5937 157.85 46.3685 158.159 46.038 158.351C45.8472 158.461 45.6368 158.524 45.434 158.535C45.2312 158.545 45.0659 158.531 44.9603 158.493L44.7666 158.427C44.7653 158.45 44.7676 158.486 44.7649 158.53C44.7622 158.575 44.7482 158.66 44.7314 158.789C44.706 158.913 44.6719 159.032 44.6204 159.142C44.5689 159.251 44.4851 159.376 44.3875 159.505C44.2762 159.638 44.1576 159.743 44.0042 159.828C43.609 160.051 43.1934 160.089 42.7388 159.954C42.2842 159.819 41.9336 159.524 41.6818 159.078ZM41.5862 157.378L42.3427 158.695C42.4772 158.923 42.6569 159.073 42.9004 159.133C43.1389 159.201 43.3791 159.166 43.6023 159.04C43.8305 158.906 43.9805 158.726 44.0401 158.482C44.1083 158.244 44.0733 158.004 43.9474 157.781L43.1959 156.455L41.5862 157.378ZM45.8308 156.564L45.131 155.349L43.8056 156.101L44.5004 157.324C44.6102 157.515 44.7602 157.636 44.9589 157.693C45.1577 157.75 45.3481 157.721 45.5389 157.611C45.7296 157.501 45.8509 157.351 45.9078 157.153C45.9646 156.954 45.9407 156.755 45.8308 156.564Z" fill="#DB5D5D"/>
<path d="M44.6898 162.551C44.8226 161.759 45.2147 161.14 45.8759 160.677C46.5371 160.214 47.2654 160.055 48.047 160.205C48.8286 160.356 49.4598 160.766 49.9443 161.451C50.4288 162.136 50.6046 162.875 50.4717 163.666C50.3389 164.458 49.9468 165.077 49.2856 165.54C48.6244 166.004 47.8961 166.162 47.1145 166.012C46.3329 165.862 45.7017 165.451 45.2172 164.766C44.729 164.067 44.5532 163.329 44.6898 162.551ZM47.9425 161.048C47.387 160.947 46.8592 161.06 46.3851 161.399C45.911 161.739 45.6192 162.185 45.5185 162.74C45.4177 163.295 45.5298 163.823 45.8697 164.297C46.2096 164.772 46.6548 165.063 47.2103 165.164C47.7658 165.265 48.2986 165.144 48.7677 164.813C49.2505 164.478 49.5336 164.028 49.6343 163.472C49.7401 162.908 49.6143 162.384 49.2831 161.915C48.9519 161.446 48.503 161.14 47.9425 161.048Z" fill="#DB5D5D"/>
<path d="M49.3122 168.844C49.3642 168.052 49.6918 167.384 50.3073 166.859C50.9227 166.335 51.624 166.103 52.4197 166.169C53.2153 166.234 53.8816 166.584 54.4359 167.228C54.9816 167.868 55.2309 168.579 55.1788 169.371C55.1268 170.163 54.7992 170.831 54.1838 171.355C53.5683 171.88 52.867 172.112 52.0714 172.046C51.2757 171.98 50.6007 171.625 50.0551 170.986C49.5131 170.361 49.2638 169.649 49.3122 168.844ZM52.3997 167.025C51.8315 166.987 51.327 167.159 50.8826 167.527C50.4419 167.91 50.2022 168.385 50.1549 168.948C50.1163 169.516 50.2832 170.029 50.6568 170.465C51.0392 170.906 51.5145 171.146 52.0776 171.193C52.6458 171.231 53.159 171.065 53.5947 170.691C54.0354 170.309 54.2751 169.833 54.3224 169.27C54.361 168.702 54.1891 168.197 53.8118 167.748C53.4381 167.312 52.9679 167.064 52.3997 167.025Z" fill="#DB5D5D"/>
<path d="M58.176 171.379L56.2793 173.34L59.9889 173.132L60.8001 173.913L57.6229 174.081L57.0157 178.061L56.2343 177.309L56.7447 174.119L55.4459 174.202L54.2727 175.412L53.6399 174.804L57.5395 170.757L58.176 171.379Z" fill="#DB5D5D"/>
<path d="M62.1156 182.222L60.2043 180.76L63.6207 176.306L65.4328 177.7C65.7935 177.978 66.0058 178.332 66.0785 178.767C66.1512 179.203 66.0662 179.571 65.8323 179.876C65.6959 180.052 65.5349 180.19 65.3455 180.278C65.156 180.365 65.009 180.419 64.8921 180.421L64.7081 180.419C64.7204 180.438 64.7314 180.479 64.7474 180.511C64.7635 180.544 64.7805 180.635 64.8085 180.767C64.8415 180.89 64.8472 181.02 64.8491 181.137C64.8511 181.254 64.8243 181.401 64.7738 181.569C64.7233 181.736 64.6518 181.88 64.5492 182.018C64.2765 182.37 63.905 182.572 63.4346 182.625C62.9693 182.669 62.5284 182.53 62.1156 182.222ZM61.3812 180.687L62.5922 181.617C62.8029 181.774 63.0277 181.846 63.2816 181.807C63.5304 181.777 63.7312 181.65 63.8913 181.453C64.0477 181.242 64.1196 181.017 64.0809 180.763C64.051 180.514 63.9288 180.305 63.718 180.149L62.5071 179.218L61.3812 180.687ZM64.9837 178.297L63.8669 177.444L62.9362 178.655L64.0529 179.508C64.2289 179.645 64.419 179.696 64.6181 179.672C64.8172 179.648 64.9893 179.551 65.1256 179.375C65.262 179.199 65.3088 179.018 65.2898 178.81C65.2485 178.601 65.151 178.429 64.9837 178.297Z" fill="#DB5D5D"/>
<path d="M68.4257 179.856L68.2317 182.939L70.9803 181.528L71.7889 182.052L68.099 183.951L67.0008 185.633L66.2617 185.148L67.36 183.467L67.6309 179.328L68.4257 179.856Z" fill="#DB5D5D"/>
<path d="M74.934 183.845L78.4246 185.64L78.0582 186.355L75.3432 184.961L74.6306 186.355L76.7748 187.455L76.4085 188.169L74.2642 187.07L73.1452 189.249L72.361 188.843L74.934 183.845Z" fill="#DB5D5D"/>
<path d="M77.723 191.487L79.8853 186.298L82.0676 187.211C82.5456 187.406 82.8812 187.727 83.0658 188.169C83.2554 188.603 83.2509 189.052 83.0623 189.499C82.9731 189.713 82.8541 189.899 82.7104 190.048C82.5617 190.205 82.4157 190.318 82.2687 190.372C82.1217 190.426 81.9834 190.485 81.8464 190.522C81.7094 190.558 81.6049 190.579 81.5154 190.574L81.3898 190.571L81.7116 193.142L80.8265 192.769L80.5477 190.304L79.3647 189.807L78.5349 191.805L77.723 191.487ZM81.7495 189.667C81.98 189.568 82.1424 189.407 82.2467 189.167C82.351 188.926 82.3521 188.683 82.2536 188.453C82.1551 188.222 81.9942 188.06 81.7534 187.955L80.3816 187.383L79.6726 189.093L81.0443 189.665C81.2901 189.761 81.524 189.757 81.7495 189.667Z" fill="#DB5D5D"/>
<path d="M83.7394 193.861L85.5764 188.554L86.4084 188.837L84.5715 194.145L83.7394 193.861Z" fill="#DB5D5D"/>
<path d="M87.9842 194.389L91.0374 195.238L90.8201 196.015L86.9234 194.923L88.4387 189.511L92.2696 190.577L92.0522 191.354L89.0784 190.529L88.6828 191.956L91.0379 192.61L90.8206 193.387L88.4654 192.734L87.9842 194.389Z" fill="#DB5D5D"/>
<path d="M97.7766 191.707L98.6427 191.872L97.6057 197.398L96.8638 197.259L94.541 192.699L93.7945 196.679L92.9283 196.515L93.9603 190.997L94.7109 191.141L97.0337 195.701L97.7766 191.707Z" fill="#DB5D5D"/>
<path d="M100.684 192.147L102.64 192.327C103.417 192.405 104.058 192.74 104.565 193.346C105.072 193.951 105.283 194.629 105.215 195.388C105.147 196.148 104.803 196.783 104.194 197.276C103.585 197.77 102.894 197.985 102.112 197.915L100.155 197.735L100.684 192.147ZM102.565 193.14L101.488 193.04L101.113 197.038L102.19 197.138C102.731 197.184 103.211 197.033 103.632 196.686C104.053 196.338 104.282 195.88 104.338 195.322C104.394 194.764 104.248 194.274 103.901 193.854C103.55 193.419 103.105 193.186 102.565 193.14Z" fill="#DB5D5D"/>
<path d="M109.831 196.698C109.837 196.528 109.783 196.381 109.677 196.262C109.572 196.144 109.43 196.05 109.258 195.986C109.087 195.921 108.893 195.856 108.686 195.794C108.473 195.741 108.262 195.665 108.051 195.59C107.84 195.514 107.644 195.412 107.475 195.304C107.307 195.195 107.168 195.034 107.055 194.829C106.95 194.63 106.897 194.379 106.901 194.092C106.909 193.657 107.079 193.303 107.411 193.009C107.743 192.714 108.2 192.584 108.766 192.587C108.972 192.59 109.177 192.616 109.367 192.668C109.558 192.72 109.72 192.779 109.842 192.849C109.963 192.919 110.076 192.984 110.17 193.062C110.265 193.139 110.338 193.193 110.38 193.241L110.438 193.321L109.875 193.875C109.866 193.87 109.845 193.847 109.832 193.828C109.811 193.804 109.764 193.765 109.705 193.708C109.632 193.654 109.567 193.605 109.48 193.555C109.402 193.51 109.297 193.472 109.169 193.433C109.041 193.394 108.903 193.372 108.759 193.382C108.471 193.378 108.233 193.449 108.059 193.591C107.884 193.733 107.789 193.898 107.79 194.096C107.785 194.266 107.839 194.413 107.944 194.532C108.049 194.651 108.192 194.745 108.363 194.809C108.534 194.873 108.728 194.938 108.935 195C109.143 195.062 109.359 195.129 109.57 195.205C109.781 195.28 109.969 195.377 110.146 195.491C110.323 195.605 110.453 195.761 110.567 195.965C110.671 196.165 110.724 196.415 110.725 196.694C110.718 197.187 110.541 197.594 110.176 197.905C109.812 198.215 109.322 198.361 108.698 198.36C108.447 198.354 108.197 198.325 107.967 198.262C107.737 198.199 107.549 198.125 107.401 198.039C107.253 197.954 107.119 197.865 107.016 197.783C106.905 197.695 106.828 197.628 106.782 197.566L106.703 197.463L107.267 196.908C107.279 196.927 107.291 196.946 107.321 196.974C107.351 197.003 107.402 197.056 107.487 197.128C107.573 197.201 107.672 197.269 107.767 197.325C107.871 197.385 108.003 197.438 108.171 197.488C108.338 197.539 108.512 197.558 108.705 197.565C109.051 197.568 109.33 197.486 109.528 197.323C109.727 197.159 109.838 196.946 109.831 196.698Z" fill="#DB5D5D"/>
<path d="M41.2836 78.1272L43.5995 79.4643L43.1866 80.1794L39.9853 78.3312C40.153 78.0405 40.3518 77.8011 40.5816 77.6129C40.8114 77.4246 41.0438 77.2894 41.279 77.2072C41.5186 77.1277 41.7641 77.0696 42.0153 77.033C42.2737 76.9944 42.5219 76.9682 42.76 76.9543C43.0026 76.9431 43.2258 76.9236 43.4295 76.8959C43.6377 76.8708 43.8266 76.8163 43.996 76.7325C44.1655 76.6487 44.2948 76.5296 44.3839 76.3753C44.515 76.1482 44.545 75.9233 44.4738 75.7006C44.4026 75.4778 44.233 75.2891 43.9651 75.1344C43.6699 74.964 43.3641 74.9328 43.0475 75.0406C42.9205 75.0823 42.7953 75.1523 42.672 75.2506L42.2163 74.6243C42.3906 74.4585 42.5931 74.3333 42.8237 74.2484C43.3332 74.0582 43.8513 74.1151 44.378 74.4193C44.8457 74.6893 45.1481 75.0516 45.2853 75.5062C45.4225 75.9607 45.3717 76.3946 45.1332 76.8078C45.0073 77.0258 44.8453 77.2017 44.647 77.3354C44.4486 77.4691 44.2424 77.5589 44.0282 77.6048C43.8212 77.6488 43.5889 77.6842 43.3312 77.711C43.0807 77.7359 42.84 77.7543 42.6091 77.7663C42.3853 77.7764 42.1507 77.8104 41.9052 77.8685C41.6643 77.9292 41.4571 78.0155 41.2836 78.1272Z" fill="#DB5D5D"/>
<path d="M47.3974 81.1847C47.8118 81.0123 48.1829 80.6423 48.5106 80.0746C48.8383 79.507 48.9719 79.003 48.9115 78.5624C48.8536 78.1173 48.6521 77.7951 48.307 77.5959C47.9619 77.3966 47.5822 77.3832 47.1678 77.5557C46.756 77.7236 46.3862 78.0913 46.0585 78.6589C45.7308 79.2266 45.5959 79.7329 45.6537 80.178C45.7142 80.6186 45.917 80.9385 46.2621 81.1377C46.6072 81.337 46.9857 81.3527 47.3974 81.1847ZM47.6563 81.979C47.0277 82.1973 46.4319 82.144 45.8689 81.8189C45.3058 81.4938 44.9616 81.0045 44.8364 80.351C44.7138 79.6929 44.8715 78.9847 45.3093 78.2264C45.7471 77.468 46.2803 76.9797 46.9089 76.7614C47.5401 76.5385 48.1372 76.5896 48.7003 76.9147C49.2633 77.2398 49.6062 77.7314 49.7288 78.3894C49.854 79.043 49.6977 79.7489 49.2598 80.5072C48.822 81.2656 48.2875 81.7561 47.6563 81.979Z" fill="#DB5D5D"/>
<path d="M171.95 153.567L174.266 154.904L173.853 155.619L170.651 153.771C170.819 153.48 171.018 153.241 171.248 153.053C171.477 152.865 171.71 152.729 171.945 152.647C172.185 152.568 172.43 152.51 172.681 152.473C172.94 152.434 173.188 152.408 173.426 152.394C173.669 152.383 173.892 152.364 174.095 152.336C174.304 152.311 174.493 152.256 174.662 152.172C174.832 152.089 174.961 151.97 175.05 151.815C175.181 151.588 175.211 151.363 175.14 151.141C175.069 150.918 174.899 150.729 174.631 150.574C174.336 150.404 174.03 150.373 173.714 150.481C173.587 150.522 173.461 150.592 173.338 150.691L172.882 150.064C173.057 149.898 173.259 149.773 173.49 149.688C173.999 149.498 174.517 149.555 175.044 149.859C175.512 150.129 175.814 150.492 175.951 150.946C176.088 151.401 176.038 151.835 175.799 152.248C175.673 152.466 175.511 152.642 175.313 152.775C175.115 152.909 174.908 152.999 174.694 153.045C174.487 153.089 174.255 153.124 173.997 153.151C173.747 153.176 173.506 153.194 173.275 153.206C173.051 153.216 172.817 153.25 172.571 153.308C172.33 153.369 172.123 153.455 171.95 153.567Z" fill="#DB5D5D"/>
<path d="M178.063 156.625C178.478 156.452 178.849 156.082 179.177 155.515C179.504 154.947 179.638 154.443 179.577 154.002C179.52 153.557 179.318 153.235 178.973 153.036C178.628 152.837 178.248 152.823 177.834 152.996C177.422 153.164 177.052 153.531 176.725 154.099C176.397 154.666 176.262 155.173 176.32 155.618C176.38 156.059 176.583 156.378 176.928 156.578C177.273 156.777 177.652 156.793 178.063 156.625ZM178.322 157.419C177.694 157.637 177.098 157.584 176.535 157.259C175.972 156.934 175.628 156.444 175.502 155.791C175.38 155.133 175.537 154.425 175.975 153.666C176.413 152.908 176.946 152.42 177.575 152.201C178.206 151.978 178.803 152.03 179.366 152.355C179.929 152.68 180.272 153.171 180.395 153.829C180.52 154.483 180.364 155.189 179.926 155.947C179.488 156.705 178.954 157.196 178.322 157.419Z" fill="#DB5D5D"/>
<path fill-rule="evenodd" clip-rule="evenodd" d="M99.8633 87.457L106.475 112.133L104.576 112.642L99.1926 92.5512L83.0505 120.51L120.152 110.569L120.661 112.468L78.9742 123.638L99.8633 87.457Z" fill="#DB5D5D"/>
<path fill-rule="evenodd" clip-rule="evenodd" d="M119.842 147.233L113.23 122.557L115.13 122.048L120.513 142.139L136.655 114.18L99.5536 124.121L99.0447 122.222L140.731 111.052L119.842 147.233Z" fill="#DB5D5D"/>
</svg>
