<svg width="160" height="170" viewBox="0 0 160 170" fill="none" xmlns="http://www.w3.org/2000/svg">
<path d="M12.9047 30.2421L17.3667 34.4635L16.8052 26.1111L18.5398 24.2761L19.0011 31.4153L27.9752 32.6987L26.3007 34.4735L19.1214 33.3906L19.3319 36.3185L22.0893 38.9255L20.7257 40.3693L11.541 31.686L12.9047 30.2421Z" fill="white"/>
<path d="M33.8509 28.1462L26.4009 17.9388L28.0052 16.7656L35.4552 26.973L33.8509 28.1462Z" fill="white"/>
<path d="M36.1772 11.4211L44.7402 7.16968L45.5424 8.78401L42.1533 10.4685L46.9662 20.1646L45.1915 21.057L40.3785 11.3609L36.9794 13.0354L36.1772 11.4211Z" fill="white"/>
<path d="M64.2826 1.19385L67.2806 13.4668L65.3555 13.9381L64.052 8.5837L57.9957 10.0577L59.2992 15.412L57.374 15.8833L54.376 3.61034L56.3011 3.13907L57.5645 8.323L63.6208 6.84904L62.3574 1.66511L64.2826 1.19385Z" fill="white"/>
<path d="M93.1002 10.9002C93.1303 10.9704 93.1804 11.0607 93.2506 11.171C93.3208 11.2712 93.4512 11.4216 93.6517 11.6121C93.8522 11.8026 94.0528 11.9029 94.2734 11.933C94.3335 11.943 94.3937 11.933 94.4438 11.923C94.494 11.9129 94.5441 11.9029 94.5842 11.8929C94.6243 11.8829 94.6343 11.8728 94.6444 11.8628L94.4739 13.4972C94.2232 13.5273 93.9826 13.5373 93.7419 13.5072C93.3709 13.4671 93.03 13.3267 92.6991 13.0861C92.3683 12.8455 92.1376 12.6148 92.0073 12.3842L91.8067 12.0333C91.7165 12.1135 91.5761 12.2238 91.3956 12.3441C91.2152 12.4644 90.8341 12.6148 90.2726 12.7853C89.7011 12.9557 89.1296 13.0159 88.538 12.9557C87.4149 12.8354 86.5326 12.4444 85.9009 11.7826C85.2692 11.1208 84.9985 10.3588 85.0887 9.51651C85.1288 9.08535 85.2592 8.66422 85.4697 8.26314C85.6803 7.86206 85.9109 7.53118 86.1616 7.27048C86.4123 7.00978 86.673 6.76913 86.9236 6.56859C87.1743 6.36805 87.3849 6.21765 87.5553 6.12741L87.8261 5.98703C87.7057 5.83663 87.5553 5.64611 87.3849 5.39544C87.2044 5.14477 86.9838 4.72364 86.7131 4.12202C86.4423 3.5204 86.322 2.999 86.3721 2.57787C86.4524 1.76569 86.8133 1.11394 87.445 0.622621C88.0767 0.131301 88.8287 -0.0692377 89.7211 0.0210047C90.5935 0.111247 91.2954 0.452163 91.8168 1.04375C92.3382 1.63534 92.5688 2.29712 92.4886 3.02908C92.4384 3.55048 92.1978 4.08191 91.7767 4.61334C91.3555 5.14477 90.9545 5.54584 90.5634 5.80654L89.9518 6.21765L92.0775 9.43629C92.5688 8.81462 92.8596 8.03252 92.9598 7.07996L94.5742 7.25042C94.504 7.88212 94.3536 8.50379 94.1029 9.11543C93.8522 9.71705 93.6316 10.1783 93.4211 10.4691L93.1002 10.9002ZM88.6984 11.3514C89.0694 11.3915 89.4404 11.3615 89.8114 11.2712C90.1924 11.181 90.4732 11.0707 90.6637 10.9504L90.9344 10.7799L88.6683 7.27048C88.548 7.34066 88.3876 7.44093 88.197 7.58131C88.0065 7.72169 87.7559 7.99241 87.435 8.38346C87.1141 8.77452 86.9337 9.16557 86.8935 9.53656C86.8434 10.0379 86.9637 10.449 87.2645 10.7699C87.5653 11.0907 88.0366 11.2812 88.6984 11.3514ZM90.7439 3.03911C90.784 2.67814 90.6837 2.36731 90.4631 2.10661C90.2425 1.84591 89.9217 1.68548 89.5306 1.64537C89.1296 1.60526 88.7987 1.6955 88.5179 1.90607C88.2372 2.11663 88.0868 2.40741 88.0466 2.76838C88.0166 3.02908 88.0968 3.34995 88.2873 3.71092C88.4778 4.07189 88.6683 4.38272 88.8789 4.62337L89.1897 4.96428C89.29 4.89409 89.4304 4.79382 89.5908 4.65345C89.7512 4.51307 89.9818 4.28245 90.2726 3.94153C90.5634 3.60062 90.7138 3.29981 90.7439 3.03911Z" fill="white"/>
<path d="M117.887 7.49141L115.26 13.0463L123.031 9.92796L125.317 11.0109L118.669 13.658L120.233 22.592L118.027 21.5492L116.824 14.3899L114.107 15.5029L112.482 18.9321L110.688 18.0799L116.092 6.65918L117.887 7.49141Z" fill="white"/>
<path d="M126.359 26.7526L133.759 16.5151L135.364 17.6783L127.964 27.9158L126.359 26.7526Z" fill="white"/>
<path d="M150.193 31.3149L151.547 32.7688L142.312 41.392L141.149 40.1386L143.004 28.7781L136.346 34.9948L134.993 33.5409L144.227 24.9177L145.391 26.1711L143.526 37.5416L150.193 31.3149Z" fill="white"/>
<path d="M41.8427 159.529L39.7671 158.316L42.5947 153.463L44.57 154.616C44.961 154.847 45.2217 155.167 45.3521 155.589C45.4824 156.01 45.4423 156.391 45.2518 156.722C45.1415 156.912 44.9911 157.073 44.8207 157.183C44.6502 157.293 44.4998 157.363 44.3895 157.383L44.189 157.424C44.199 157.444 44.219 157.474 44.2391 157.514C44.2592 157.554 44.2892 157.634 44.3394 157.754C44.3795 157.875 44.4096 157.995 44.4196 158.115C44.4296 158.236 44.4196 158.386 44.3995 158.547C44.3695 158.717 44.3193 158.867 44.2291 159.018C43.9985 159.409 43.6575 159.65 43.1963 159.76C42.7351 159.87 42.2838 159.79 41.8427 159.529ZM40.9102 158.105L42.2237 158.867C42.4543 158.998 42.6849 159.038 42.9256 158.968C43.1662 158.908 43.3567 158.757 43.4871 158.537C43.6174 158.306 43.6575 158.075 43.5874 157.835C43.5272 157.594 43.3768 157.403 43.1562 157.273L41.8427 156.501L40.9102 158.105ZM44.1789 155.278L42.9657 154.576L42.1936 155.889L43.4069 156.601C43.5974 156.712 43.7879 156.742 43.9884 156.692C44.189 156.641 44.3394 156.521 44.4497 156.331C44.56 156.14 44.59 155.95 44.5399 155.749C44.4898 155.548 44.3695 155.388 44.1789 155.278Z" fill="white"/>
<path d="M46.1843 161.033C45.9036 160.281 45.9337 159.549 46.2746 158.817C46.6155 158.085 47.167 157.584 47.919 157.323C48.671 157.062 49.423 157.103 50.1851 157.454C50.9471 157.804 51.4685 158.356 51.7493 159.108C52.03 159.86 51.9999 160.592 51.659 161.324C51.3181 162.056 50.7666 162.557 50.0146 162.818C49.2626 163.079 48.5106 163.039 47.7485 162.688C46.9765 162.327 46.4551 161.775 46.1843 161.033ZM48.2499 158.105C47.7185 158.296 47.3174 158.657 47.0767 159.188C46.8361 159.72 46.806 160.251 46.9965 160.782C47.187 161.314 47.548 161.715 48.0794 161.956C48.6108 162.196 49.1423 162.226 49.6737 162.036C50.2051 161.845 50.6062 161.474 50.8469 160.953C51.0975 160.422 51.1176 159.89 50.9271 159.359C50.7366 158.817 50.3656 158.426 49.8442 158.186C49.3228 157.945 48.7813 157.905 48.2499 158.105Z" fill="white"/>
<path d="M53.3335 164.172C52.9825 163.46 52.9324 162.718 53.2031 161.956C53.4739 161.194 53.9652 160.642 54.6871 160.301C55.4091 159.96 56.1611 159.93 56.9632 160.211C57.7554 160.492 58.3269 160.983 58.6778 161.695C59.0288 162.407 59.0789 163.149 58.8082 163.911C58.5375 164.673 58.0461 165.224 57.3242 165.565C56.6023 165.906 55.8402 165.936 55.0481 165.656C54.266 165.385 53.6944 164.894 53.3335 164.172ZM55.0982 161.053C54.5868 161.304 54.2359 161.705 54.0354 162.246C53.8449 162.798 53.8749 163.329 54.1156 163.841C54.3663 164.352 54.7673 164.713 55.3088 164.904C55.8603 165.094 56.3917 165.064 56.9031 164.823C57.4144 164.573 57.7754 164.172 57.9659 163.63C58.1564 163.079 58.1264 162.547 57.8857 162.036C57.635 161.524 57.234 161.174 56.6825 160.973C56.141 160.782 55.6096 160.803 55.0982 161.053Z" fill="white"/>
<path d="M62.2775 161.935L61.6157 164.583L64.724 162.547L65.817 162.818L63.1498 164.552L64.6138 168.303L63.5609 168.042L62.4078 165.024L61.3249 165.746L60.9138 167.38L60.0615 167.169L61.4152 161.715L62.2775 161.935Z" fill="white"/>
<path d="M71.111 169.356L68.7246 169.045L69.4566 163.48L71.7227 163.781C72.1739 163.841 72.5348 164.042 72.8156 164.383C73.0964 164.724 73.2067 165.085 73.1565 165.466C73.1264 165.686 73.0562 165.887 72.9359 166.057C72.8156 166.228 72.7153 166.348 72.6151 166.408L72.4546 166.498C72.4747 166.508 72.5048 166.538 72.5348 166.559C72.5649 166.579 72.6251 166.649 72.7153 166.749C72.8056 166.839 72.8758 166.95 72.9359 167.05C72.9961 167.15 73.0462 167.29 73.0863 167.461C73.1264 167.631 73.1365 167.792 73.1164 167.962C73.0562 168.403 72.8357 168.764 72.4546 169.045C72.0736 169.316 71.6224 169.416 71.111 169.356ZM69.7072 168.393L71.2213 168.594C71.482 168.624 71.7126 168.574 71.9132 168.413C72.1137 168.263 72.224 168.053 72.2641 167.802C72.2942 167.541 72.2441 167.311 72.0836 167.11C71.9332 166.909 71.7227 166.789 71.462 166.759L69.9479 166.559L69.7072 168.393ZM71.6324 164.523L70.2387 164.343L70.0381 165.857L71.4319 166.037C71.6525 166.067 71.843 166.017 72.0034 165.897C72.1638 165.776 72.2641 165.606 72.2942 165.385C72.3243 165.165 72.2741 164.984 72.1538 164.814C72.0134 164.653 71.843 164.553 71.6324 164.523Z" fill="white"/>
<path d="M75.393 164.152L76.7667 166.919L78.4412 164.322L79.4038 164.372L77.1577 167.862L77.0474 169.867L76.1651 169.817L76.2754 167.812L74.4404 164.092L75.393 164.152Z" fill="white"/>
<path d="M83.0234 164.352L86.944 164.161L86.9841 164.964L83.9359 165.114L84.0161 166.678L86.4226 166.558L86.4627 167.36L84.0562 167.48L84.1765 169.927L83.2942 169.967L83.0234 164.352Z" fill="white"/>
<path d="M89.26 169.576L88.5381 164.001L90.8844 163.7C91.3958 163.63 91.847 163.74 92.228 164.031C92.609 164.312 92.8296 164.703 92.8898 165.184C92.9199 165.415 92.9098 165.635 92.8597 165.836C92.8096 166.046 92.7394 166.217 92.6391 166.337C92.5388 166.458 92.4486 166.578 92.3483 166.678C92.248 166.778 92.1678 166.849 92.0876 166.889L91.9773 166.949L93.5415 169.014L92.589 169.135L91.115 167.139L89.8416 167.3L90.1223 169.446L89.26 169.576ZM91.8369 165.986C91.9874 165.786 92.0475 165.565 92.0174 165.304C91.9874 165.044 91.867 164.833 91.6665 164.683C91.4659 164.532 91.2454 164.472 90.9847 164.502L89.5107 164.693L89.7513 166.528L91.2253 166.337C91.486 166.297 91.6865 166.177 91.8369 165.986Z" fill="white"/>
<path d="M95.6571 168.624L94.5942 163.109L95.4566 162.939L96.5194 168.454L95.6571 168.624Z" fill="white"/>
<path d="M99.5977 166.959L102.666 166.167L102.867 166.949L98.946 167.951L97.5522 162.507L101.403 161.514L101.603 162.296L98.6151 163.068L98.9861 164.502L101.352 163.891L101.553 164.673L99.1866 165.284L99.5977 166.959Z" fill="white"/>
<path d="M106.737 159.74L107.569 159.449L109.434 164.753L108.722 165.004L104.431 162.217L105.774 166.037L104.942 166.328L103.077 161.033L103.799 160.783L108.091 163.57L106.737 159.74Z" fill="white"/>
<path d="M109.474 158.667L111.259 157.845C111.971 157.524 112.693 157.494 113.435 157.764C114.177 158.035 114.698 158.516 115.019 159.208C115.34 159.9 115.36 160.622 115.079 161.354C114.798 162.086 114.307 162.618 113.595 162.948L111.81 163.771L109.474 158.667ZM111.6 158.587L110.617 159.038L112.292 162.688L113.274 162.236C113.766 162.006 114.107 161.635 114.297 161.124C114.488 160.612 114.458 160.101 114.227 159.589C113.996 159.078 113.625 158.727 113.114 158.537C112.593 158.336 112.091 158.356 111.6 158.587Z" fill="white"/>
<path d="M119.672 158.035C119.591 157.885 119.471 157.784 119.321 157.734C119.17 157.684 119 157.674 118.819 157.704C118.639 157.734 118.438 157.774 118.228 157.824C118.017 157.885 117.797 157.925 117.576 157.965C117.355 158.005 117.135 158.015 116.934 158.005C116.734 157.995 116.533 157.925 116.333 157.804C116.142 157.684 115.972 157.494 115.831 157.243C115.621 156.862 115.591 156.471 115.731 156.05C115.871 155.629 116.202 155.288 116.694 155.007C116.874 154.907 117.065 154.826 117.255 154.776C117.446 154.726 117.616 154.696 117.756 154.696C117.897 154.696 118.027 154.696 118.148 154.716C118.268 154.736 118.358 154.746 118.418 154.766L118.508 154.806L118.298 155.568C118.288 155.568 118.258 155.558 118.238 155.548C118.208 155.538 118.148 155.528 118.067 155.508C117.977 155.498 117.897 155.488 117.797 155.488C117.706 155.488 117.596 155.508 117.466 155.538C117.335 155.568 117.205 155.619 117.085 155.699C116.834 155.839 116.664 156.02 116.583 156.23C116.503 156.441 116.503 156.631 116.603 156.802C116.684 156.952 116.804 157.052 116.954 157.103C117.105 157.153 117.275 157.163 117.456 157.133C117.636 157.103 117.837 157.062 118.047 157.012C118.258 156.962 118.478 156.912 118.699 156.872C118.92 156.832 119.13 156.822 119.341 156.832C119.551 156.842 119.742 156.912 119.942 157.032C120.133 157.153 120.303 157.343 120.444 157.584C120.684 158.015 120.734 158.456 120.574 158.907C120.414 159.359 120.063 159.73 119.521 160.04C119.301 160.161 119.07 160.261 118.839 160.321C118.609 160.381 118.408 160.411 118.238 160.411C118.067 160.411 117.907 160.401 117.777 160.381C117.636 160.361 117.536 160.341 117.466 160.311L117.345 160.261L117.556 159.499C117.576 159.509 117.596 159.519 117.636 159.529C117.676 159.539 117.746 159.559 117.857 159.579C117.967 159.599 118.087 159.609 118.198 159.609C118.318 159.609 118.458 159.589 118.629 159.549C118.799 159.509 118.96 159.439 119.13 159.349C119.431 159.178 119.632 158.968 119.722 158.727C119.812 158.486 119.802 158.246 119.672 158.035Z" fill="white"/>
<path d="M1.02245 89.6231H3.69657V90.4489H0C0 90.1133 0.0524336 89.8066 0.157301 89.5287C0.262168 89.2508 0.395874 89.0175 0.558418 88.8287C0.726205 88.64 0.909723 88.4669 1.10897 88.3096C1.31346 88.1471 1.51533 88.0003 1.71458 87.8692C1.91907 87.7381 2.10259 87.6096 2.26513 87.4838C2.43292 87.358 2.56925 87.2164 2.67411 87.0591C2.77898 86.9018 2.83141 86.734 2.83141 86.5557C2.83141 86.2936 2.7449 86.0838 2.57187 85.9265C2.39884 85.7692 2.15764 85.6906 1.84828 85.6906C1.50747 85.6906 1.22695 85.8164 1.00672 86.0681C0.917588 86.1677 0.844181 86.2909 0.786504 86.4378L0.0786504 86.1232C0.146814 85.8924 0.259546 85.6827 0.416847 85.4939C0.762909 85.0745 1.24005 84.8647 1.84828 84.8647C2.38835 84.8647 2.83141 85.0273 3.17748 85.3524C3.52354 85.6775 3.69657 86.0786 3.69657 86.5557C3.69657 86.8074 3.64413 87.0407 3.53927 87.2557C3.4344 87.4707 3.30069 87.6516 3.13815 87.7984C2.98085 87.94 2.79733 88.0868 2.5876 88.2388C2.38311 88.3857 2.18386 88.522 1.98985 88.6478C1.80109 88.7684 1.61495 88.9152 1.43144 89.0883C1.25316 89.2613 1.11684 89.4396 1.02245 89.6231Z" fill="white"/>
<path d="M7.84593 89.2141C8.11858 88.8576 8.25491 88.3516 8.25491 87.6962C8.25491 87.0407 8.11858 86.5374 7.84593 86.1861C7.57327 85.8295 7.2377 85.6513 6.8392 85.6513C6.44071 85.6513 6.10513 85.8295 5.83248 86.1861C5.55982 86.5374 5.4235 87.0407 5.4235 87.6962C5.4235 88.3516 5.55982 88.8576 5.83248 89.2141C6.10513 89.5654 6.44071 89.7411 6.8392 89.7411C7.2377 89.7411 7.57327 89.5654 7.84593 89.2141ZM8.46727 89.7725C8.03207 90.2759 7.48938 90.5276 6.8392 90.5276C6.18903 90.5276 5.64634 90.2759 5.21114 89.7725C4.77594 89.2639 4.55834 88.5718 4.55834 87.6962C4.55834 86.8205 4.77594 86.131 5.21114 85.6277C5.64634 85.119 6.18903 84.8647 6.8392 84.8647C7.48938 84.8647 8.03207 85.119 8.46727 85.6277C8.90247 86.131 9.12006 86.8205 9.12006 87.6962C9.12006 88.5718 8.90247 89.2639 8.46727 89.7725Z" fill="white"/>
<path d="M151.902 89.6231H154.576V90.4489H150.88C150.88 90.1133 150.932 89.8066 151.037 89.5287C151.142 89.2508 151.276 89.0175 151.438 88.8287C151.606 88.64 151.79 88.4669 151.989 88.3096C152.193 88.1471 152.395 88.0003 152.594 87.8692C152.799 87.7381 152.982 87.6096 153.145 87.4838C153.313 87.358 153.449 87.2164 153.554 87.0591C153.659 86.9018 153.711 86.734 153.711 86.5557C153.711 86.2936 153.625 86.0838 153.452 85.9265C153.279 85.7692 153.038 85.6906 152.728 85.6906C152.387 85.6906 152.107 85.8164 151.887 86.0681C151.797 86.1677 151.724 86.2909 151.666 86.4378L150.959 86.1232C151.027 85.8924 151.139 85.6827 151.297 85.4939C151.643 85.0745 152.12 84.8647 152.728 84.8647C153.268 84.8647 153.711 85.0273 154.057 85.3524C154.403 85.6775 154.576 86.0786 154.576 86.5557C154.576 86.8074 154.524 87.0407 154.419 87.2557C154.314 87.4707 154.181 87.6516 154.018 87.7984C153.861 87.94 153.677 88.0868 153.467 88.2388C153.263 88.3857 153.064 88.522 152.87 88.6478C152.681 88.7684 152.495 88.9152 152.311 89.0883C152.133 89.2613 151.997 89.4396 151.902 89.6231Z" fill="white"/>
<path d="M158.726 89.2141C158.998 88.8576 159.135 88.3516 159.135 87.6962C159.135 87.0407 158.998 86.5374 158.726 86.1861C158.453 85.8295 158.118 85.6513 157.719 85.6513C157.321 85.6513 156.985 85.8295 156.712 86.1861C156.44 86.5374 156.303 87.0407 156.303 87.6962C156.303 88.3516 156.44 88.8576 156.712 89.2141C156.985 89.5654 157.321 89.7411 157.719 89.7411C158.118 89.7411 158.453 89.5654 158.726 89.2141ZM159.347 89.7725C158.912 90.2759 158.369 90.5276 157.719 90.5276C157.069 90.5276 156.526 90.2759 156.091 89.7725C155.656 89.2639 155.438 88.5718 155.438 87.6962C155.438 86.8205 155.656 86.131 156.091 85.6277C156.526 85.119 157.069 84.8647 157.719 84.8647C158.369 84.8647 158.912 85.119 159.347 85.6277C159.782 86.131 160 86.8205 160 87.6962C160 88.5718 159.782 89.2639 159.347 89.7725Z" fill="white"/>
<path fill-rule="evenodd" clip-rule="evenodd" d="M56.4185 68.4136L74.4823 86.4774L73.0919 87.8677L58.3847 73.1605V105.445L85.5449 78.2846L86.9352 79.675L56.4185 110.192V68.4136Z" fill="white"/>
<path fill-rule="evenodd" clip-rule="evenodd" d="M103.609 110.191L85.5451 92.1274L86.9354 90.737L101.643 105.444V73.1599L74.4825 100.32L73.0921 98.9298L103.609 68.413V110.191Z" fill="white"/>
</svg>
