<svg width="275" height="272" viewBox="0 0 275 272" fill="none" xmlns="http://www.w3.org/2000/svg">
<path d="M96.4653 20.9375C96.6062 20.8905 96.7471 20.8905 96.888 20.9375L98.2971 21.5951C97.9214 22.7693 97.3108 23.8026 96.4653 24.695C95.6199 25.6344 94.4456 26.3859 92.9426 26.9965C91.6275 27.5601 90.3594 27.795 89.1382 27.795C87.917 27.795 86.7427 27.5601 85.6625 27.0435C84.5822 26.5268 83.5958 25.8223 82.7034 24.8829C81.811 23.9435 81.1065 22.7693 80.5428 21.4072C79.9792 20.0451 79.6974 18.73 79.6504 17.4148C79.6035 16.0997 79.8383 14.8785 80.308 13.7043C80.7777 12.577 81.4352 11.5437 82.3746 10.6043C83.314 9.71191 84.4413 8.96041 85.7564 8.39678C87.0715 7.83316 88.2927 7.55134 89.42 7.59831C90.5472 7.59831 91.6275 7.78619 92.6608 8.20891L92.332 9.66495C92.332 9.75888 92.2851 9.85282 92.2381 9.94676C92.1911 10.0407 92.0972 10.0877 91.9563 10.1816C91.8624 10.2286 91.7214 10.2286 91.5805 10.2286C91.4396 10.1816 91.2518 10.1816 91.0169 10.1346C90.7821 10.0877 90.5472 10.0407 90.2654 9.99373C89.9836 9.94676 89.6548 9.94676 89.326 9.94676C88.9503 9.94676 88.5745 9.99373 88.1048 10.0877C87.6821 10.1816 87.1655 10.3225 86.6488 10.5574C85.6625 10.9801 84.864 11.4967 84.2064 12.1543C83.5489 12.8119 83.0322 13.5634 82.7504 14.4558C82.4216 15.3012 82.2807 16.2406 82.3277 17.2739C82.3746 18.3072 82.6095 19.3405 83.0792 20.4208C83.5488 21.5481 84.1125 22.4875 84.817 23.239C85.5215 23.9905 86.273 24.5541 87.0715 24.9299C87.87 25.3056 88.7154 25.4935 89.6548 25.4935C90.5942 25.4935 91.4396 25.3056 92.332 24.9299C92.8487 24.695 93.3184 24.4602 93.7411 24.2253C94.1638 23.9905 94.4926 23.7087 94.8214 23.4268C95.1502 23.145 95.385 22.8163 95.6199 22.4875C95.8547 22.1587 96.0426 21.7829 96.2774 21.3602C96.2305 21.1254 96.3244 20.9845 96.4653 20.9375Z" fill="white"/>
<path d="M103.602 8.51629C104.588 8.28144 105.48 8.1875 106.373 8.32841C107.265 8.46932 108.017 8.75113 108.721 9.17385C109.426 9.64354 110.036 10.2541 110.553 11.0056C111.07 11.7571 111.445 12.6965 111.727 13.7298C112.009 14.7632 112.103 15.7495 112.056 16.6889C111.962 17.6283 111.774 18.4267 111.351 19.1782C110.976 19.9297 110.412 20.5403 109.708 21.104C109.003 21.6676 108.158 22.0433 107.171 22.2782C106.185 22.513 105.292 22.607 104.4 22.513C103.508 22.4191 102.756 22.1373 102.052 21.6676C101.347 21.1979 100.736 20.5873 100.22 19.8358C99.7031 19.0843 99.2804 18.1449 99.0456 17.1116C98.7637 16.0783 98.6698 15.0919 98.7637 14.1526C98.8577 13.2132 99.0925 12.4147 99.4683 11.6632C99.844 10.9117 100.408 10.3011 101.112 9.73748C101.77 9.17385 102.615 8.7981 103.602 8.51629ZM106.701 20.4464C108.017 20.1176 108.909 19.4131 109.285 18.3328C109.708 17.2995 109.708 15.9844 109.285 14.3874C108.862 12.7905 108.205 11.6632 107.312 10.9117C106.42 10.2072 105.339 10.0193 104.024 10.3481C103.367 10.536 102.803 10.7708 102.38 11.1465C101.958 11.5223 101.629 11.945 101.394 12.4617C101.159 12.9783 101.065 13.5889 101.065 14.2465C101.065 14.9041 101.159 15.6556 101.394 16.454C101.582 17.2525 101.864 17.9101 102.192 18.5207C102.521 19.0843 102.897 19.554 103.367 19.8828C103.789 20.2116 104.306 20.4464 104.87 20.5403C105.433 20.6343 106.044 20.6343 106.701 20.4464Z" fill="white"/>
<path d="M115.906 20.0204L114.074 6.3524L115.483 6.16452C115.812 6.11755 116.046 6.25846 116.187 6.58724L116.563 8.04328C117.08 7.29178 117.643 6.68118 118.348 6.16452C119.005 5.64786 119.851 5.36605 120.79 5.22514C121.542 5.1312 122.199 5.17817 122.81 5.31908C123.421 5.50696 123.937 5.78877 124.36 6.16452C124.783 6.58724 125.158 7.05693 125.44 7.66753C125.722 8.27812 125.91 8.98266 126.004 9.73416L127.178 18.4234L124.783 18.7522L123.608 10.0629C123.468 9.02963 123.139 8.27812 122.575 7.76147C122.011 7.24481 121.26 7.05693 120.274 7.19784C119.569 7.29178 118.912 7.57359 118.348 7.99631C117.784 8.41903 117.268 8.98266 116.845 9.59325L118.207 19.6446L115.906 20.0204Z" fill="white"/>
<path d="M134.647 18.4588C133.567 18.5058 132.721 18.224 132.111 17.6134C131.5 17.0028 131.171 16.1573 131.171 15.0301L130.937 6.57565L129.293 6.62262C129.152 6.62262 129.011 6.57565 128.917 6.48172C128.823 6.38778 128.776 6.24687 128.776 6.10596L128.682 5.16659L130.937 4.79083L131.359 0.516659C131.359 0.375752 131.406 0.281814 131.547 0.187876C131.641 0.0939379 131.782 0.046969 131.923 0.046969L133.144 0L133.285 4.74387L137.23 4.60296L137.277 6.34081L133.332 6.48172L133.567 14.7483C133.567 15.3119 133.755 15.7346 134.037 16.0164C134.318 16.2982 134.694 16.4391 135.117 16.3922C135.352 16.3922 135.587 16.3452 135.774 16.2513C135.962 16.1573 136.103 16.1104 136.244 16.0164C136.385 15.9225 136.479 15.8755 136.573 15.7816C136.667 15.6876 136.761 15.6876 136.808 15.6876C136.949 15.6876 137.043 15.7346 137.137 15.9225L137.888 17.0497C137.465 17.4725 136.996 17.7543 136.385 18.0361C135.774 18.3179 135.258 18.4588 134.647 18.4588Z" fill="white"/>
<path d="M150.288 18.8179L149.207 18.724C148.973 18.724 148.785 18.677 148.644 18.583C148.503 18.4891 148.409 18.3482 148.409 18.1134L148.221 16.7982C147.845 17.08 147.47 17.3619 147.094 17.5967C146.718 17.8315 146.342 18.0194 145.967 18.1603C145.591 18.3012 145.168 18.3952 144.745 18.4891C144.323 18.5361 143.806 18.583 143.289 18.5361C142.773 18.4891 142.256 18.3952 141.786 18.2073C141.317 18.0194 140.941 17.7846 140.612 17.4558C140.283 17.127 140.048 16.7513 139.861 16.2816C139.673 15.8119 139.626 15.2482 139.673 14.6377C139.72 14.074 139.908 13.5574 140.236 13.0877C140.565 12.618 141.082 12.1953 141.786 11.8195C142.491 11.4907 143.383 11.2089 144.464 11.021C145.544 10.8332 146.906 10.7862 148.456 10.9271L148.55 9.84682C148.644 8.76653 148.456 7.92109 148.033 7.35747C147.61 6.79384 146.953 6.46506 146.06 6.37112C145.45 6.32415 144.98 6.37112 144.557 6.51203C144.135 6.65293 143.806 6.79384 143.477 6.93475C143.148 7.12262 142.914 7.26353 142.679 7.40444C142.444 7.54534 142.256 7.59231 142.021 7.59231C141.88 7.59231 141.739 7.54534 141.598 7.4514C141.458 7.35747 141.411 7.26353 141.317 7.12262L140.941 6.32415C141.739 5.61962 142.585 5.14993 143.524 4.82114C144.417 4.53933 145.403 4.39842 146.483 4.49236C147.235 4.53933 147.939 4.72721 148.503 5.00902C149.067 5.29083 149.583 5.66658 149.959 6.18324C150.335 6.65293 150.616 7.21656 150.757 7.87412C150.945 8.53169 150.992 9.23622 150.945 10.0347L150.288 18.8179ZM144.088 16.9391C144.511 16.9861 144.886 16.9391 145.262 16.8922C145.638 16.8452 145.967 16.7513 146.295 16.6103C146.624 16.4694 146.953 16.2816 147.235 16.0937C147.517 15.9058 147.845 15.624 148.127 15.3892L148.315 12.571C147.188 12.4771 146.248 12.524 145.45 12.571C144.651 12.665 143.994 12.8059 143.524 12.9937C143.008 13.1816 142.632 13.4165 142.397 13.7452C142.162 14.0271 142.021 14.3558 141.974 14.7786C141.927 15.1543 141.974 15.4831 142.068 15.7179C142.162 15.9998 142.303 16.2346 142.491 16.4225C142.679 16.6103 142.914 16.7513 143.195 16.8452C143.477 16.8452 143.759 16.8922 144.088 16.9391Z" fill="white"/>
<path d="M164.658 9.72325C164.564 9.81719 164.47 9.86416 164.423 9.91113C164.329 9.9581 164.235 9.9581 164.094 9.9581C163.953 9.91113 163.812 9.86416 163.671 9.72325C163.53 9.58235 163.343 9.44144 163.155 9.25356C162.92 9.06569 162.685 8.92478 162.356 8.73691C162.027 8.54903 161.605 8.45509 161.135 8.36115C160.477 8.26721 159.867 8.26722 159.303 8.40812C158.74 8.54903 158.27 8.83084 157.847 9.20659C157.424 9.58235 157.049 10.099 156.767 10.7096C156.485 11.3202 156.25 12.0247 156.109 12.7762C155.968 13.6217 155.921 14.3262 156.015 15.0307C156.109 15.6883 156.25 16.2989 156.532 16.7686C156.814 17.2853 157.143 17.661 157.612 17.9898C158.082 18.3186 158.599 18.5064 159.209 18.6004C159.773 18.6943 160.29 18.7413 160.665 18.6474C161.041 18.5534 161.417 18.4595 161.699 18.3655C161.98 18.2246 162.215 18.1307 162.403 17.9898C162.591 17.8959 162.779 17.8489 162.92 17.8489C163.108 17.8959 163.249 17.9898 163.343 18.1777L163.859 19.164C163.155 19.7746 162.309 20.1973 161.37 20.3852C160.43 20.5731 159.444 20.5731 158.458 20.3852C157.612 20.2443 156.861 19.9625 156.156 19.4928C155.499 19.0701 154.935 18.5064 154.512 17.8019C154.09 17.0974 153.808 16.2989 153.62 15.4065C153.479 14.4671 153.479 13.4808 153.667 12.3535C153.855 11.3202 154.137 10.4278 154.606 9.62932C155.076 8.83084 155.593 8.17328 156.25 7.60965C156.908 7.04602 157.659 6.71724 158.505 6.52936C159.35 6.34149 160.29 6.29452 161.323 6.48239C162.262 6.67027 163.108 6.95208 163.765 7.3748C164.423 7.79753 165.033 8.36115 165.456 9.01872L164.658 9.72325Z" fill="white"/>
<path d="M169.451 22.9367C168.418 22.6549 167.666 22.1382 167.29 21.3867C166.868 20.6352 166.821 19.7428 167.149 18.6156L169.404 10.4899L167.807 10.0672C167.666 10.0202 167.572 9.97328 167.478 9.83237C167.384 9.73843 167.384 9.59753 167.431 9.40965L167.666 8.47027L169.921 8.79905L171.611 4.85366C171.658 4.71275 171.752 4.61882 171.893 4.57185C172.034 4.52488 172.128 4.52488 172.316 4.57185L173.49 4.90063L172.222 9.50359L176.026 10.5369L175.557 12.2278L171.752 11.1945L169.545 19.1792C169.404 19.7428 169.404 20.2125 169.592 20.5413C169.78 20.8701 170.108 21.1049 170.531 21.2458C170.766 21.2928 171.001 21.3398 171.189 21.3398C171.377 21.3398 171.564 21.2928 171.705 21.2458C171.846 21.1989 171.987 21.1519 172.081 21.1049C172.175 21.058 172.269 21.0579 172.363 21.0579C172.504 21.1049 172.598 21.1989 172.645 21.3867L173.02 22.7019C172.504 22.9837 171.94 23.1246 171.33 23.1716C170.672 23.1716 170.061 23.1246 169.451 22.9367Z" fill="white"/>
<path d="M187.626 27.2721C188.378 27.6009 189.082 27.7888 189.74 27.8358C190.444 27.8358 191.102 27.7418 191.665 27.46C192.276 27.1782 192.84 26.8024 193.309 26.2858C193.826 25.7691 194.249 25.1585 194.577 24.407L199.65 13.6042L202.046 14.7314L197.02 25.4873C196.55 26.5206 195.94 27.3661 195.188 28.1176C194.437 28.8691 193.638 29.3857 192.746 29.7145C191.853 30.0433 190.867 30.2312 189.834 30.1842C188.8 30.1372 187.72 29.8554 186.64 29.3388C185.559 28.8221 184.667 28.2115 183.963 27.413C183.258 26.6615 182.741 25.8161 182.46 24.8767C182.131 23.9373 182.037 22.9979 182.131 21.9646C182.225 20.9313 182.506 19.898 182.976 18.9117L188.002 8.15576L190.397 9.28302L185.372 20.0389C185.043 20.7904 184.808 21.4949 184.761 22.1995C184.714 22.904 184.761 23.6085 184.949 24.2191C185.137 24.8297 185.466 25.4403 185.935 25.957C186.311 26.4737 186.922 26.8964 187.626 27.2721Z" fill="white"/>
<path d="M209.607 28.9049C209.419 28.9988 209.231 28.9988 209.043 28.9049C208.949 28.811 208.808 28.717 208.714 28.5292C208.62 28.3413 208.526 28.1534 208.339 27.9186C208.198 27.6837 208.01 27.4489 207.775 27.1671C207.54 26.8852 207.211 26.6504 206.836 26.3686C206.507 26.1337 206.131 25.9928 205.802 25.8989C205.473 25.805 205.145 25.805 204.863 25.805C204.581 25.8519 204.299 25.8989 204.064 26.0398C203.83 26.1807 203.642 26.3686 203.501 26.6034C203.313 26.8852 203.219 27.214 203.266 27.4958C203.313 27.8246 203.454 28.1064 203.642 28.4352C203.83 28.764 204.064 29.0928 204.346 29.4216C204.628 29.7504 204.91 30.1261 205.239 30.5019C205.567 30.8776 205.802 31.2534 206.084 31.6291C206.366 32.0049 206.554 32.4276 206.695 32.8033C206.836 33.2261 206.882 33.6488 206.836 34.0715C206.789 34.4942 206.648 34.9639 206.319 35.4336C205.99 35.9503 205.567 36.4199 205.098 36.7487C204.628 37.0775 204.064 37.3124 203.501 37.4063C202.89 37.5002 202.28 37.4533 201.622 37.3124C200.964 37.1714 200.26 36.8427 199.555 36.4199C198.757 35.9033 198.099 35.2927 197.583 34.6351C197.113 33.9306 196.737 33.273 196.549 32.5685L197.536 32.0988C197.677 32.0518 197.771 32.0049 197.911 32.0049C198.052 32.0049 198.146 32.0518 198.287 32.1458C198.428 32.2397 198.522 32.3806 198.616 32.5685C198.71 32.7564 198.804 32.9912 198.945 33.273C199.086 33.5548 199.274 33.8367 199.508 34.1185C199.743 34.4003 200.119 34.7291 200.589 35.0109C200.964 35.2457 201.387 35.4336 201.716 35.5275C202.092 35.6215 202.42 35.6215 202.749 35.5745C203.078 35.5275 203.36 35.4336 203.595 35.2457C203.83 35.0578 204.017 34.87 204.205 34.5882C204.393 34.2594 204.487 33.9306 204.44 33.6018C204.393 33.273 204.299 32.9442 204.111 32.6155C203.923 32.2867 203.689 31.9579 203.407 31.6291C203.125 31.3003 202.796 30.9246 202.514 30.5488C202.233 30.1731 201.951 29.7973 201.669 29.4216C201.387 29.0458 201.199 28.6231 201.058 28.2004C200.917 27.7777 200.87 27.3549 200.917 26.8852C200.964 26.4156 201.152 25.9459 201.481 25.4292C201.763 25.0065 202.139 24.6307 202.561 24.302C202.984 24.0201 203.501 23.8323 204.064 23.7383C204.628 23.6444 205.192 23.6914 205.849 23.8323C206.46 23.9732 207.117 24.255 207.775 24.6777C208.526 25.1474 209.137 25.711 209.607 26.3686C210.076 26.9792 210.358 27.6837 210.546 28.3883L209.607 28.9049Z" fill="white"/>
<path d="M233.892 61.7689C233.986 61.8629 234.033 62.0038 234.033 62.1917L233.845 63.6947C232.624 63.6947 231.449 63.4129 230.322 62.8962C229.195 62.3795 228.115 61.4871 227.034 60.2659C226.095 59.1857 225.484 58.0584 225.109 56.8842C224.733 55.7099 224.592 54.5357 224.733 53.3145C224.874 52.0933 225.249 50.9661 225.907 49.8388C226.565 48.7116 227.41 47.6313 228.537 46.6919C229.665 45.7525 230.839 45.048 232.06 44.5783C233.281 44.1086 234.549 43.9677 235.771 44.0617C236.992 44.1556 238.213 44.4844 239.34 45.095C240.467 45.7056 241.548 46.551 242.487 47.6313C243.426 48.7116 244.037 49.7919 244.413 50.8721C244.742 51.9524 244.882 53.0327 244.836 54.16L243.379 54.3009C243.286 54.3009 243.145 54.3009 243.051 54.3009C242.957 54.3009 242.863 54.2069 242.769 54.113C242.675 54.0191 242.628 53.8782 242.628 53.7373C242.628 53.5963 242.581 53.4085 242.581 53.1736C242.581 52.9388 242.534 52.7039 242.487 52.4221C242.44 52.1403 242.346 51.8115 242.252 51.4827C242.111 51.154 241.97 50.7782 241.736 50.4025C241.501 50.0267 241.219 49.604 240.843 49.1343C240.186 48.3358 239.387 47.7252 238.589 47.3025C237.743 46.8798 236.898 46.6449 235.958 46.598C235.019 46.551 234.127 46.6919 233.187 47.0677C232.248 47.4434 231.308 48.007 230.416 48.7585C229.477 49.557 228.772 50.4025 228.302 51.2949C227.786 52.1873 227.504 53.0797 227.41 53.9721C227.316 54.8645 227.41 55.7099 227.645 56.6024C227.927 57.4478 228.349 58.2463 229.007 58.9508C229.383 59.3735 229.758 59.7493 230.087 60.0781C230.463 60.4068 230.792 60.6417 231.168 60.8296C231.543 61.0174 231.919 61.2053 232.295 61.2993C232.671 61.3932 233.093 61.4871 233.563 61.5811C233.61 61.5811 233.751 61.628 233.892 61.7689Z" fill="white"/>
<path d="M247.887 64.6364C248.451 65.4818 248.78 66.3272 248.921 67.2197C249.062 68.1121 249.062 68.9105 248.827 69.756C248.592 70.5544 248.216 71.3529 247.652 72.0574C247.089 72.762 246.337 73.4665 245.445 74.0302C244.506 74.6407 243.613 75.0165 242.721 75.2513C241.828 75.4862 240.983 75.4862 240.137 75.3453C239.292 75.2044 238.541 74.8756 237.836 74.3589C237.131 73.8423 236.474 73.1847 235.957 72.3393C235.394 71.4938 235.065 70.6484 234.877 69.756C234.736 68.9105 234.736 68.0651 234.971 67.2197C235.206 66.3742 235.581 65.6227 236.145 64.9182C236.709 64.2136 237.46 63.5091 238.353 62.9455C239.245 62.3818 240.184 61.9591 241.077 61.7243C241.969 61.4894 242.862 61.4894 243.66 61.6303C244.506 61.7713 245.257 62.1 246.009 62.6167C246.713 63.1334 247.324 63.7909 247.887 64.6364ZM237.507 71.306C238.259 72.4332 239.198 73.0438 240.325 73.1377C241.453 73.1847 242.721 72.809 244.083 71.9165C245.445 71.0241 246.337 70.0378 246.76 69.0045C247.183 67.9242 246.995 66.8439 246.243 65.7166C245.868 65.153 245.445 64.6833 244.975 64.4015C244.506 64.1197 243.989 63.9318 243.425 63.8849C242.862 63.8379 242.251 63.9318 241.64 64.1197C240.983 64.3076 240.325 64.6364 239.668 65.1061C239.01 65.5757 238.4 65.9985 237.977 66.5151C237.507 66.9848 237.225 67.5015 237.038 68.0181C236.85 68.5348 236.803 69.0984 236.897 69.6151C236.944 70.1787 237.131 70.7423 237.507 71.306Z" fill="white"/>
<path d="M240.796 79.8889L253.243 73.9238L253.854 75.239C253.995 75.5677 253.948 75.8026 253.666 76.0374L252.398 76.8359C253.243 77.0708 254.042 77.4465 254.699 77.9632C255.404 78.4328 255.92 79.1374 256.343 80.0298C256.672 80.6874 256.86 81.3449 256.86 82.0025C256.86 82.6601 256.766 83.2237 256.531 83.7873C256.296 84.3509 255.92 84.8206 255.404 85.2903C254.887 85.76 254.323 86.1358 253.619 86.4645L245.681 90.269L244.648 88.0615L252.586 84.257C253.525 83.7873 254.136 83.2237 254.464 82.5661C254.793 81.9086 254.699 81.1101 254.276 80.2177C253.948 79.5601 253.525 79.0434 252.961 78.6207C252.398 78.198 251.693 77.9162 250.942 77.6813L241.783 82.0964L240.796 79.8889Z" fill="white"/>
<path d="M248.077 97.2857C247.701 96.2523 247.701 95.3599 248.077 94.6084C248.453 93.8569 249.157 93.2933 250.238 92.9175L258.176 90.0524L257.612 88.5025C257.565 88.3616 257.565 88.2206 257.612 88.1267C257.659 87.9858 257.753 87.8919 257.941 87.8449L258.833 87.5161L259.866 89.5358L264.047 88.6434C264.188 88.5964 264.328 88.6434 264.422 88.6903C264.516 88.7373 264.61 88.8782 264.657 89.0191L265.08 90.1933L260.618 91.7903L261.933 95.5008L260.289 96.1114L258.974 92.4009L251.177 95.219C250.614 95.4069 250.285 95.6887 250.097 96.0645C249.909 96.4402 249.909 96.816 250.05 97.2387C250.144 97.4735 250.238 97.6614 250.379 97.8493C250.52 97.9902 250.614 98.1311 250.754 98.225C250.895 98.319 250.989 98.4129 251.083 98.4599C251.177 98.5068 251.224 98.6008 251.271 98.6478C251.318 98.7887 251.271 98.8826 251.177 99.0235L250.332 100.104C249.815 99.822 249.345 99.4932 248.97 98.9765C248.594 98.4129 248.265 97.8493 248.077 97.2857Z" fill="white"/>
<path d="M252.538 112.247L252.257 111.213C252.21 110.979 252.21 110.791 252.21 110.65C252.257 110.509 252.351 110.368 252.585 110.274L253.76 109.71C253.337 109.429 252.961 109.147 252.632 108.912C252.304 108.63 251.975 108.348 251.74 108.02C251.458 107.691 251.27 107.315 251.035 106.939C250.848 106.564 250.66 106.094 250.566 105.577C250.425 105.06 250.378 104.544 250.425 104.074C250.472 103.604 250.566 103.135 250.801 102.712C250.988 102.289 251.317 101.961 251.693 101.632C252.069 101.303 252.585 101.068 253.196 100.927C253.713 100.786 254.276 100.833 254.84 100.974C255.404 101.115 255.967 101.491 256.484 102.054C257.047 102.618 257.564 103.37 258.034 104.356C258.55 105.342 258.973 106.61 259.349 108.113L260.382 107.832C261.416 107.55 262.167 107.127 262.59 106.563C263.013 106 263.106 105.248 262.919 104.403C262.778 103.839 262.59 103.37 262.355 102.994C262.12 102.618 261.885 102.336 261.603 102.101C261.369 101.867 261.134 101.632 260.946 101.491C260.758 101.303 260.617 101.115 260.57 100.927C260.523 100.786 260.523 100.598 260.57 100.458C260.617 100.317 260.711 100.176 260.805 100.082L261.463 99.4712C262.355 100.035 263.106 100.692 263.67 101.444C264.234 102.195 264.656 103.135 264.891 104.168C265.079 104.92 265.126 105.624 265.032 106.235C264.938 106.892 264.703 107.456 264.375 107.973C264.046 108.489 263.576 108.912 263.013 109.288C262.449 109.663 261.791 109.898 261.04 110.086L252.538 112.247ZM252.444 105.765C252.538 106.188 252.679 106.564 252.867 106.892C253.055 107.221 253.243 107.503 253.478 107.785C253.713 108.067 253.948 108.301 254.276 108.536C254.558 108.771 254.887 108.959 255.216 109.147L257.987 108.442C257.705 107.362 257.423 106.47 257.094 105.718C256.766 105.014 256.437 104.403 256.108 103.98C255.779 103.557 255.404 103.276 255.075 103.135C254.746 102.994 254.37 102.994 253.994 103.088C253.619 103.182 253.337 103.323 253.102 103.511C252.867 103.698 252.679 103.886 252.585 104.121C252.491 104.356 252.398 104.638 252.398 104.92C252.304 105.154 252.351 105.436 252.444 105.765Z" fill="white"/>
<path d="M265.596 123.148C265.502 123.101 265.408 123.007 265.314 122.961C265.267 122.914 265.22 122.773 265.173 122.679C265.173 122.538 265.173 122.397 265.267 122.209C265.361 122.021 265.455 121.833 265.549 121.551C265.643 121.27 265.736 120.988 265.783 120.612C265.83 120.236 265.83 119.814 265.783 119.297C265.689 118.639 265.502 118.076 265.173 117.559C264.844 117.042 264.468 116.714 263.952 116.432C263.435 116.15 262.871 115.962 262.214 115.868C261.556 115.774 260.805 115.774 260.053 115.915C259.208 116.009 258.503 116.244 257.893 116.479C257.282 116.761 256.765 117.089 256.39 117.512C256.014 117.935 255.732 118.358 255.544 118.874C255.403 119.391 255.356 119.955 255.45 120.565C255.544 121.129 255.685 121.598 255.873 121.974C256.061 122.35 256.249 122.632 256.484 122.867C256.671 123.101 256.859 123.289 257.047 123.43C257.188 123.571 257.282 123.712 257.329 123.9C257.376 124.088 257.282 124.276 257.141 124.37L256.343 125.168C255.544 124.651 254.887 123.994 254.417 123.148C253.947 122.303 253.665 121.364 253.525 120.377C253.431 119.532 253.478 118.686 253.665 117.935C253.9 117.136 254.229 116.479 254.793 115.821C255.356 115.164 256.014 114.694 256.812 114.224C257.658 113.802 258.597 113.52 259.724 113.332C260.758 113.191 261.697 113.191 262.59 113.379C263.482 113.567 264.28 113.849 264.985 114.318C265.689 114.788 266.253 115.399 266.723 116.15C267.192 116.902 267.474 117.794 267.615 118.827C267.756 119.767 267.709 120.659 267.521 121.411C267.333 122.209 266.958 122.914 266.488 123.571L265.596 123.148Z" fill="white"/>
<path d="M254.513 131.746C254.466 130.666 254.748 129.82 255.311 129.21C255.875 128.599 256.767 128.27 257.895 128.224L266.349 127.848L266.255 126.204C266.255 126.063 266.302 125.922 266.349 125.828C266.443 125.734 266.584 125.687 266.725 125.64L267.711 125.593L268.087 127.848L272.361 128.224C272.502 128.224 272.596 128.27 272.69 128.364C272.784 128.458 272.831 128.599 272.831 128.74L272.878 129.961L268.134 130.149L268.322 134.095L266.584 134.189L266.396 130.243L258.129 130.619C257.566 130.666 257.143 130.807 256.861 131.089C256.579 131.37 256.486 131.746 256.486 132.216C256.486 132.451 256.533 132.686 256.626 132.873C256.72 133.061 256.767 133.202 256.861 133.343C256.955 133.484 257.049 133.578 257.096 133.672C257.19 133.766 257.19 133.86 257.19 133.907C257.19 134.048 257.143 134.142 256.955 134.236L255.828 134.987C255.405 134.564 255.076 134.095 254.842 133.531C254.654 132.967 254.513 132.357 254.513 131.746Z" fill="white"/>
<path d="M256.014 150.405C255.92 151.203 255.967 151.955 256.155 152.612C256.343 153.27 256.672 153.834 257.094 154.35C257.517 154.867 258.081 155.243 258.738 155.571C259.396 155.9 260.1 156.088 260.946 156.182L272.735 157.591L272.406 160.221L260.617 158.812C259.49 158.671 258.504 158.39 257.564 157.92C256.672 157.45 255.873 156.84 255.263 156.088C254.652 155.337 254.182 154.444 253.901 153.458C253.619 152.471 253.572 151.344 253.713 150.17C253.854 148.996 254.182 147.915 254.699 147.023C255.216 146.131 255.873 145.379 256.625 144.769C257.423 144.205 258.316 143.782 259.302 143.547C260.288 143.312 261.369 143.265 262.496 143.406L274.285 144.815L273.956 147.446L262.214 146.037C261.416 145.943 260.664 145.943 259.96 146.131C259.255 146.272 258.644 146.553 258.081 146.929C257.564 147.305 257.094 147.821 256.766 148.385C256.343 148.902 256.108 149.606 256.014 150.405Z" fill="white"/>
<path d="M261.322 171.809C261.135 171.668 261.088 171.48 261.135 171.246C261.182 171.105 261.276 170.964 261.416 170.823C261.557 170.682 261.698 170.494 261.886 170.306C262.074 170.071 262.262 169.837 262.45 169.508C262.638 169.179 262.779 168.803 262.919 168.381C263.013 168.005 263.06 167.629 263.06 167.253C263.06 166.924 262.966 166.596 262.872 166.314C262.732 166.032 262.591 165.844 262.403 165.656C262.215 165.468 261.98 165.375 261.698 165.281C261.369 165.187 261.041 165.234 260.759 165.375C260.477 165.515 260.195 165.703 259.96 165.985C259.726 166.267 259.491 166.596 259.256 166.971C259.021 167.347 258.786 167.723 258.504 168.146C258.27 168.521 257.988 168.944 257.706 169.273C257.424 169.649 257.095 169.977 256.767 170.212C256.438 170.447 256.015 170.635 255.592 170.729C255.17 170.823 254.653 170.823 254.136 170.682C253.526 170.541 252.962 170.259 252.492 169.93C252.023 169.555 251.647 169.132 251.365 168.615C251.083 168.099 250.942 167.488 250.848 166.784C250.801 166.079 250.848 165.375 251.083 164.529C251.318 163.59 251.694 162.791 252.164 162.134C252.68 161.476 253.197 160.912 253.807 160.49L254.559 161.288C254.653 161.382 254.7 161.476 254.747 161.617C254.794 161.711 254.794 161.852 254.747 162.04C254.7 162.181 254.606 162.368 254.418 162.509C254.23 162.65 254.042 162.838 253.854 163.026C253.62 163.261 253.432 163.496 253.197 163.825C252.962 164.153 252.821 164.576 252.68 165.14C252.586 165.609 252.539 166.032 252.539 166.408C252.586 166.784 252.68 167.112 252.821 167.394C252.962 167.676 253.15 167.911 253.385 168.099C253.62 168.287 253.901 168.381 254.183 168.474C254.559 168.568 254.888 168.568 255.17 168.427C255.451 168.287 255.733 168.099 255.968 167.817C256.203 167.535 256.485 167.206 256.72 166.831C256.954 166.455 257.189 166.032 257.471 165.656C257.706 165.234 257.988 164.858 258.27 164.482C258.551 164.106 258.88 163.778 259.256 163.543C259.632 163.308 260.007 163.12 260.477 163.026C260.947 162.932 261.416 162.979 262.027 163.12C262.544 163.261 263.013 163.496 263.436 163.825C263.859 164.153 264.188 164.576 264.422 165.046C264.657 165.562 264.845 166.126 264.892 166.737C264.939 167.394 264.892 168.099 264.704 168.85C264.469 169.743 264.141 170.494 263.671 171.105C263.201 171.715 262.685 172.232 262.074 172.608L261.322 171.809Z" fill="white"/>
<path d="M237.509 205.015C237.415 205.156 237.321 205.203 237.133 205.25L235.63 205.532C235.254 204.358 235.16 203.183 235.301 201.915C235.442 200.694 235.959 199.379 236.804 198.017C237.555 196.796 238.401 195.856 239.434 195.152C240.468 194.447 241.548 193.93 242.722 193.696C243.896 193.461 245.117 193.461 246.386 193.743C247.654 194.024 248.922 194.494 250.19 195.293C251.458 196.044 252.492 196.983 253.29 198.017C254.089 199.05 254.652 200.177 254.934 201.398C255.216 202.573 255.263 203.841 255.075 205.109C254.84 206.377 254.37 207.645 253.619 208.867C252.867 210.088 252.022 211.027 251.13 211.685C250.19 212.342 249.204 212.812 248.123 213.094L247.513 211.732C247.466 211.638 247.466 211.544 247.419 211.45C247.419 211.356 247.466 211.215 247.513 211.121C247.56 211.027 247.654 210.933 247.842 210.886C247.983 210.839 248.17 210.745 248.358 210.651C248.546 210.557 248.781 210.463 249.063 210.323C249.345 210.182 249.58 209.994 249.861 209.806C250.143 209.571 250.425 209.289 250.754 208.96C251.083 208.632 251.364 208.209 251.646 207.692C252.21 206.8 252.539 205.907 252.679 204.968C252.82 204.029 252.773 203.136 252.539 202.244C252.304 201.352 251.881 200.506 251.223 199.708C250.613 198.909 249.767 198.205 248.781 197.594C247.748 196.936 246.714 196.561 245.728 196.326C244.742 196.138 243.802 196.091 242.91 196.279C242.018 196.467 241.219 196.796 240.515 197.312C239.81 197.829 239.199 198.486 238.683 199.332C238.401 199.848 238.119 200.271 237.931 200.741C237.743 201.164 237.602 201.586 237.555 202.009C237.462 202.432 237.462 202.855 237.462 203.23C237.462 203.653 237.509 204.076 237.602 204.545C237.602 204.733 237.602 204.874 237.509 205.015Z" fill="white"/>
<path d="M239.058 219.252C238.401 220.051 237.696 220.614 236.944 221.037C236.193 221.46 235.348 221.695 234.549 221.741C233.704 221.788 232.858 221.648 231.966 221.319C231.073 220.99 230.228 220.52 229.382 219.816C228.537 219.111 227.879 218.407 227.41 217.608C226.94 216.81 226.611 216.011 226.517 215.166C226.376 214.32 226.47 213.522 226.705 212.676C226.987 211.831 227.41 211.033 228.067 210.234C228.725 209.436 229.429 208.872 230.181 208.449C230.932 208.027 231.778 207.792 232.576 207.745C233.375 207.698 234.267 207.839 235.16 208.121C236.052 208.449 236.898 208.919 237.743 209.623C238.588 210.328 239.246 211.033 239.716 211.831C240.185 212.63 240.514 213.428 240.608 214.273C240.702 215.119 240.655 215.964 240.42 216.81C240.138 217.655 239.716 218.454 239.058 219.252ZM229.523 211.455C228.678 212.489 228.349 213.569 228.631 214.696C228.913 215.776 229.664 216.857 230.932 217.89C232.201 218.923 233.422 219.487 234.549 219.534C235.676 219.581 236.663 219.111 237.555 218.031C237.978 217.514 238.26 216.951 238.401 216.434C238.541 215.87 238.541 215.354 238.401 214.79C238.26 214.226 238.025 213.71 237.602 213.146C237.226 212.583 236.71 212.066 236.052 211.549C235.395 211.033 234.784 210.61 234.173 210.375C233.563 210.093 232.999 209.952 232.435 209.952C231.872 209.952 231.355 210.046 230.839 210.281C230.416 210.516 229.946 210.892 229.523 211.455Z" fill="white"/>
<path d="M222.336 217.185L231.871 227.189L230.838 228.176C230.603 228.411 230.321 228.458 230.039 228.27L228.865 227.33C228.865 228.223 228.771 229.068 228.536 229.867C228.301 230.665 227.785 231.417 227.08 232.074C226.517 232.591 225.953 232.967 225.389 233.201C224.779 233.436 224.215 233.483 223.605 233.436C222.994 233.389 222.43 233.155 221.82 232.826C221.209 232.497 220.645 232.027 220.129 231.464L214.07 225.123L215.808 223.432L221.867 229.773C222.571 230.524 223.323 230.947 224.074 231.041C224.826 231.135 225.53 230.853 226.235 230.149C226.751 229.632 227.127 229.068 227.315 228.411C227.55 227.753 227.597 227.002 227.597 226.203L220.599 218.829L222.336 217.185Z" fill="white"/>
<path d="M208.105 229.444C208.95 228.787 209.795 228.505 210.641 228.646C211.486 228.787 212.238 229.303 212.942 230.196L218.109 236.865L219.424 235.832C219.518 235.738 219.659 235.691 219.8 235.691C219.941 235.691 220.035 235.785 220.176 235.926L220.786 236.677L219.189 238.274L221.35 241.985C221.397 242.126 221.444 242.22 221.397 242.361C221.35 242.502 221.303 242.596 221.162 242.69L220.176 243.441L217.263 239.684L214.117 242.079L213.036 240.67L216.136 238.274L211.064 231.746C210.688 231.276 210.312 231.041 209.936 230.994C209.561 230.947 209.185 231.041 208.809 231.323C208.621 231.464 208.433 231.652 208.339 231.793C208.245 231.981 208.152 232.122 208.105 232.262C208.058 232.403 208.011 232.544 207.964 232.638C207.917 232.732 207.87 232.826 207.823 232.873C207.729 232.967 207.588 232.967 207.4 232.92L206.132 232.45C206.226 231.887 206.414 231.323 206.742 230.806C207.165 230.29 207.588 229.867 208.105 229.444Z" fill="white"/>
<path d="M195.235 238.321L196.127 237.757C196.315 237.617 196.503 237.57 196.691 237.523C196.832 237.523 197.02 237.57 197.161 237.757L198.053 238.697C198.194 238.227 198.335 237.804 198.476 237.382C198.617 236.959 198.804 236.583 199.039 236.254C199.274 235.879 199.556 235.55 199.838 235.268C200.167 234.939 200.542 234.658 200.965 234.376C201.435 234.094 201.904 233.906 202.374 233.765C202.844 233.624 203.314 233.624 203.783 233.671C204.253 233.718 204.676 233.906 205.098 234.188C205.521 234.47 205.897 234.892 206.226 235.409C206.507 235.879 206.648 236.395 206.695 237.006C206.695 237.617 206.554 238.227 206.179 238.932C205.803 239.636 205.239 240.341 204.488 241.139C203.689 241.938 202.656 242.736 201.341 243.582L201.904 244.521C202.468 245.413 203.126 246.024 203.783 246.212C204.488 246.447 205.192 246.306 205.944 245.836C206.46 245.507 206.836 245.179 207.071 244.85C207.353 244.521 207.541 244.192 207.682 243.863C207.823 243.535 207.963 243.253 208.057 243.018C208.151 242.783 208.292 242.595 208.48 242.501C208.621 242.407 208.762 242.36 208.903 242.36C209.044 242.36 209.185 242.407 209.326 242.454L210.124 242.877C209.889 243.91 209.466 244.803 208.903 245.601C208.339 246.4 207.635 247.057 206.695 247.621C206.038 248.044 205.38 248.278 204.77 248.372C204.159 248.466 203.501 248.466 202.938 248.278C202.374 248.091 201.811 247.809 201.294 247.386C200.777 246.963 200.308 246.4 199.885 245.742L195.235 238.321ZM201.341 236.254C200.965 236.489 200.683 236.724 200.401 237.006C200.167 237.288 199.932 237.57 199.744 237.851C199.556 238.133 199.415 238.462 199.274 238.838C199.133 239.167 199.039 239.542 198.992 239.918L200.495 242.313C201.435 241.703 202.186 241.139 202.797 240.623C203.36 240.106 203.83 239.589 204.112 239.12C204.394 238.65 204.582 238.227 204.582 237.851C204.582 237.476 204.535 237.1 204.3 236.771C204.112 236.442 203.877 236.207 203.642 236.067C203.407 235.926 203.173 235.785 202.891 235.785C202.609 235.738 202.374 235.785 202.092 235.832C201.904 235.973 201.623 236.067 201.341 236.254Z" fill="white"/>
<path d="M188.941 254.144C188.941 254.003 188.988 253.909 189.035 253.863C189.082 253.769 189.176 253.722 189.27 253.675C189.364 253.628 189.551 253.581 189.739 253.628C189.927 253.675 190.162 253.675 190.444 253.722C190.726 253.722 191.054 253.722 191.43 253.675C191.806 253.628 192.182 253.487 192.651 253.252C193.262 252.97 193.732 252.594 194.107 252.125C194.483 251.702 194.718 251.185 194.812 250.622C194.906 250.058 194.906 249.447 194.812 248.79C194.671 248.132 194.436 247.428 194.107 246.723C193.732 245.972 193.309 245.361 192.886 244.844C192.417 244.328 191.947 243.952 191.43 243.717C190.914 243.482 190.397 243.341 189.833 243.341C189.27 243.341 188.753 243.482 188.189 243.764C187.673 244.046 187.25 244.281 186.968 244.61C186.686 244.891 186.451 245.173 186.311 245.455C186.17 245.737 186.029 245.972 185.935 246.16C185.841 246.347 185.747 246.488 185.606 246.582C185.418 246.676 185.23 246.676 185.089 246.582L184.103 246.066C184.338 245.126 184.761 244.328 185.418 243.623C186.076 242.919 186.874 242.355 187.767 241.932C188.565 241.557 189.317 241.369 190.115 241.322C190.914 241.275 191.712 241.416 192.463 241.745C193.215 242.026 193.92 242.543 194.577 243.201C195.235 243.858 195.845 244.704 196.315 245.69C196.785 246.629 197.066 247.522 197.16 248.461C197.301 249.353 197.254 250.246 197.019 251.044C196.785 251.843 196.409 252.594 195.845 253.252C195.282 253.909 194.53 254.473 193.591 254.943C192.745 255.366 191.9 255.6 191.101 255.647C190.303 255.694 189.504 255.6 188.753 255.319L188.941 254.144Z" fill="white"/>
<path d="M177.298 246.26C178.331 245.884 179.224 245.884 179.975 246.213C180.727 246.541 181.337 247.293 181.713 248.373L184.672 256.264L186.222 255.7C186.363 255.653 186.504 255.653 186.598 255.7C186.692 255.747 186.833 255.841 186.88 256.029L187.208 256.922L185.189 258.002L186.175 262.182C186.222 262.323 186.175 262.464 186.128 262.558C186.081 262.652 185.94 262.746 185.799 262.793L184.672 263.215L182.981 258.753L179.271 260.162L178.66 258.519L182.371 257.109L179.458 249.36C179.271 248.796 178.989 248.467 178.613 248.279C178.237 248.091 177.862 248.091 177.439 248.279C177.204 248.373 177.016 248.467 176.875 248.608C176.734 248.749 176.593 248.843 176.499 248.984C176.406 249.125 176.312 249.219 176.265 249.313C176.218 249.407 176.124 249.454 176.077 249.501C175.936 249.547 175.842 249.501 175.654 249.407L174.574 248.561C174.809 248.044 175.184 247.575 175.654 247.152C176.171 246.823 176.734 246.494 177.298 246.26Z" fill="white"/>
<path d="M160.059 253.446C159.261 253.587 158.603 253.869 157.993 254.245C157.429 254.621 156.959 255.09 156.631 255.654C156.302 256.218 156.067 256.875 155.973 257.58C155.879 258.284 155.926 259.036 156.067 259.834L158.322 271.483L155.738 271.999L153.484 260.351C153.249 259.224 153.249 258.19 153.437 257.157C153.625 256.124 153.953 255.231 154.47 254.433C154.987 253.634 155.691 252.93 156.537 252.319C157.382 251.756 158.415 251.333 159.59 251.098C160.764 250.863 161.844 250.863 162.878 251.051C163.911 251.239 164.803 251.662 165.602 252.225C166.4 252.789 167.058 253.493 167.574 254.386C168.091 255.278 168.467 256.265 168.702 257.345L170.956 268.993L168.373 269.51L166.118 257.862C165.978 257.063 165.696 256.359 165.367 255.701C164.991 255.09 164.568 254.574 164.052 254.151C163.535 253.775 162.925 253.493 162.22 253.353C161.515 253.212 160.811 253.306 160.059 253.446Z" fill="white"/>
<path d="M141.269 265.045C141.363 264.857 141.504 264.716 141.739 264.716C141.88 264.716 142.021 264.763 142.209 264.857C142.397 264.951 142.585 265.045 142.866 265.139C143.148 265.233 143.43 265.327 143.759 265.421C144.088 265.515 144.51 265.515 144.98 265.515C145.403 265.468 145.732 265.421 146.06 265.28C146.389 265.139 146.671 264.998 146.859 264.81C147.094 264.622 147.235 264.388 147.328 264.153C147.422 263.918 147.469 263.636 147.469 263.354C147.469 262.979 147.328 262.697 147.094 262.509C146.859 262.321 146.577 262.086 146.248 261.945C145.919 261.804 145.497 261.663 145.074 261.569C144.651 261.476 144.182 261.335 143.759 261.241C143.336 261.147 142.866 260.959 142.397 260.818C141.974 260.677 141.551 260.442 141.223 260.207C140.847 259.973 140.565 259.644 140.33 259.268C140.095 258.892 139.954 258.423 139.954 257.859C139.907 257.201 140.001 256.638 140.189 256.074C140.377 255.51 140.706 255.041 141.129 254.618C141.551 254.195 142.068 253.867 142.679 253.585C143.289 253.303 144.041 253.162 144.886 253.115C145.825 253.068 146.718 253.162 147.516 253.444C148.315 253.726 149.019 254.054 149.583 254.524L149.066 255.463C149.019 255.604 148.925 255.698 148.831 255.745C148.738 255.792 148.597 255.839 148.456 255.886C148.315 255.886 148.127 255.839 147.939 255.745C147.751 255.651 147.516 255.51 147.235 255.37C146.953 255.229 146.624 255.088 146.248 254.994C145.872 254.9 145.403 254.853 144.839 254.9C144.369 254.947 143.947 254.994 143.618 255.182C143.289 255.323 143.007 255.51 142.772 255.745C142.538 255.98 142.397 256.215 142.303 256.497C142.209 256.779 142.162 257.06 142.209 257.389C142.209 257.765 142.35 258.094 142.585 258.329C142.819 258.563 143.101 258.751 143.43 258.939C143.759 259.08 144.182 259.221 144.604 259.315C145.027 259.409 145.497 259.55 145.966 259.644C146.436 259.738 146.859 259.879 147.328 260.066C147.751 260.207 148.174 260.442 148.503 260.677C148.831 260.912 149.16 261.288 149.395 261.663C149.63 262.086 149.771 262.556 149.818 263.166C149.865 263.683 149.771 264.2 149.583 264.716C149.395 265.233 149.113 265.656 148.691 266.032C148.315 266.407 147.798 266.736 147.188 267.018C146.577 267.253 145.919 267.441 145.121 267.488C144.229 267.535 143.383 267.441 142.632 267.206C141.88 266.971 141.223 266.595 140.706 266.125L141.269 265.045Z" fill="white"/>
<path d="M102.38 252.74C102.239 252.694 102.145 252.6 102.051 252.459L101.3 251.144C102.286 250.439 103.413 249.969 104.634 249.687C105.856 249.453 107.265 249.5 108.815 249.875C110.177 250.204 111.351 250.721 112.384 251.472C113.371 252.224 114.169 253.116 114.78 254.15C115.343 255.183 115.719 256.357 115.86 257.672C116.001 258.987 115.907 260.349 115.578 261.759C115.249 263.168 114.686 264.436 113.934 265.516C113.183 266.596 112.29 267.489 111.257 268.146C110.224 268.804 109.05 269.227 107.781 269.414C106.513 269.602 105.151 269.555 103.742 269.227C102.333 268.898 101.206 268.381 100.266 267.724C99.3739 267.066 98.5754 266.268 97.9648 265.328L99.0921 264.342C99.186 264.248 99.28 264.201 99.3739 264.154C99.4679 264.107 99.6088 264.107 99.7497 264.154C99.8436 264.201 99.9845 264.248 100.078 264.389C100.172 264.53 100.313 264.624 100.454 264.811C100.595 264.999 100.783 265.14 100.971 265.375C101.159 265.563 101.441 265.751 101.722 265.986C102.004 266.174 102.38 266.361 102.803 266.549C103.225 266.737 103.695 266.878 104.259 267.019C105.292 267.254 106.231 267.301 107.171 267.16C108.11 267.019 108.956 266.69 109.707 266.174C110.459 265.657 111.116 264.999 111.68 264.154C112.243 263.309 112.666 262.322 112.948 261.148C113.23 259.974 113.324 258.846 113.183 257.86C113.042 256.874 112.807 255.934 112.337 255.183C111.915 254.384 111.304 253.727 110.599 253.21C109.895 252.694 109.05 252.318 108.11 252.083C107.547 251.942 107.03 251.848 106.56 251.801C106.09 251.754 105.668 251.754 105.245 251.801C104.822 251.848 104.447 251.942 104.024 252.083C103.601 252.224 103.225 252.412 102.85 252.6C102.662 252.74 102.521 252.74 102.38 252.74Z" fill="white"/>
<path d="M89.3218 258.613C88.3825 258.238 87.584 257.768 86.9734 257.157C86.3628 256.547 85.8461 255.842 85.5643 255.091C85.2825 254.339 85.1416 253.447 85.1416 252.507C85.1886 251.568 85.3764 250.629 85.7992 249.595C86.1749 248.562 86.6916 247.717 87.3022 247.012C87.9128 246.308 88.5703 245.791 89.3218 245.415C90.0733 245.039 90.8718 244.852 91.7642 244.852C92.6566 244.852 93.549 244.992 94.4884 245.368C95.4278 245.744 96.2263 246.214 96.8369 246.824C97.4944 247.435 97.9641 248.139 98.2459 248.891C98.5747 249.689 98.7156 250.535 98.6687 251.474C98.6217 252.414 98.4338 253.353 98.0111 254.386C97.6353 255.373 97.1187 256.265 96.5081 256.97C95.8975 257.674 95.2399 258.191 94.4415 258.567C93.643 258.942 92.8445 259.13 91.9991 259.13C91.1536 259.13 90.2612 258.942 89.3218 258.613ZM93.7839 247.106C92.5157 246.589 91.3885 246.683 90.4491 247.294C89.5097 247.905 88.7112 248.985 88.1006 250.488C87.4901 252.038 87.3491 253.353 87.631 254.433C87.9128 255.514 88.7112 256.312 89.9794 256.829C90.637 257.063 91.2006 257.204 91.7642 257.157C92.3278 257.11 92.8445 256.97 93.3142 256.688C93.7839 256.406 94.2066 255.983 94.6293 255.42C95.0051 254.856 95.3808 254.245 95.6626 253.447C95.9445 252.648 96.1323 251.991 96.2263 251.333C96.3202 250.676 96.2732 250.065 96.0854 249.548C95.9445 249.032 95.6626 248.562 95.2869 248.139C94.9111 247.717 94.4415 247.388 93.7839 247.106Z" fill="white"/>
<path d="M86.0785 242.081L79.5028 254.199L78.2347 253.495C77.9528 253.354 77.8119 253.072 77.9059 252.743L78.4695 251.334C77.6241 251.616 76.7786 251.804 75.9332 251.804C75.0877 251.804 74.2423 251.569 73.3969 251.099C72.7393 250.724 72.2226 250.301 71.7999 249.831C71.4242 249.315 71.1423 248.798 71.0484 248.187C70.9075 247.624 70.9545 246.966 71.0484 246.309C71.1893 245.651 71.4242 244.993 71.7999 244.289L75.9801 236.586L78.0937 237.76L73.9135 245.51C73.3968 246.449 73.2559 247.248 73.3969 247.999C73.5378 248.751 74.0544 249.315 74.8999 249.784C75.5105 250.113 76.215 250.301 76.9195 250.301C77.6241 250.301 78.3756 250.16 79.0801 249.878L83.9179 240.954L86.0785 242.081Z" fill="white"/>
<path d="M70.0136 232.306C70.906 232.916 71.4226 233.668 71.5635 234.466C71.7044 235.265 71.4696 236.204 70.812 237.143L66.0682 244.095L67.4303 245.034C67.5712 245.128 67.6181 245.222 67.6651 245.363C67.7121 245.504 67.6651 245.645 67.5712 245.786L67.0075 246.584L64.9879 245.551L62.1228 248.745C62.0288 248.839 61.9349 248.886 61.794 248.933C61.6531 248.933 61.5122 248.933 61.4182 248.839L60.3849 248.134L63.0621 244.189L59.8213 241.981L60.8076 240.525L64.0485 242.733L68.6984 235.875C69.0272 235.405 69.1681 234.983 69.0742 234.56C68.9802 234.184 68.7924 233.856 68.4166 233.574C68.2287 233.433 67.9939 233.339 67.806 233.292C67.6181 233.245 67.4303 233.198 67.2894 233.198C67.1484 233.198 67.0075 233.198 66.8666 233.198C66.7727 233.198 66.6788 233.198 66.5848 233.151C66.4909 233.057 66.4439 232.963 66.4439 232.775L66.4909 231.413C67.0545 231.319 67.6651 231.366 68.2757 231.507C68.9333 231.695 69.4969 231.93 70.0136 232.306Z" fill="white"/>
<path d="M57.6208 222.777L58.4663 223.481C58.6541 223.622 58.7481 223.763 58.842 223.951C58.889 224.092 58.889 224.28 58.7481 224.468L58.1375 225.642C58.6072 225.642 59.0769 225.642 59.4996 225.642C59.9223 225.642 60.345 225.736 60.7677 225.83C61.1905 225.924 61.5662 226.112 61.942 226.3C62.3177 226.487 62.7404 226.769 63.1162 227.098C63.5389 227.427 63.8677 227.803 64.1025 228.225C64.3843 228.648 64.5253 229.071 64.6192 229.54C64.7131 230.01 64.6662 230.48 64.5253 230.949C64.3843 231.419 64.1025 231.936 63.7268 232.405C63.398 232.828 62.9283 233.11 62.3647 233.345C61.8011 233.533 61.1435 233.58 60.392 233.439C59.6405 233.298 58.7481 233.016 57.7617 232.499C56.7754 231.983 55.6951 231.231 54.4739 230.245L53.7694 231.09C53.0648 231.936 52.736 232.687 52.736 233.392C52.736 234.096 53.0648 234.754 53.7694 235.318C54.2391 235.693 54.6618 235.975 55.0375 236.116C55.4133 236.257 55.836 236.351 56.1648 236.398C56.4936 236.445 56.8223 236.492 57.0572 236.492C57.339 236.492 57.5269 236.586 57.6678 236.727C57.8087 236.821 57.8557 236.961 57.9026 237.102C57.9496 237.243 57.9496 237.384 57.9026 237.525L57.7617 238.418C56.7284 238.511 55.7421 238.371 54.8027 238.089C53.9103 237.807 53.0179 237.337 52.2194 236.633C51.6088 236.116 51.1861 235.599 50.9043 235.036C50.6224 234.472 50.4346 233.862 50.4346 233.251C50.4346 232.64 50.5285 232.03 50.7634 231.372C50.9982 230.762 51.3739 230.151 51.8906 229.54L57.6208 222.777ZM61.5192 227.943C61.1905 227.662 60.8617 227.474 60.5329 227.286C60.2041 227.145 59.8753 227.004 59.5465 226.91C59.2178 226.816 58.842 226.769 58.4663 226.769C58.0905 226.769 57.7148 226.769 57.339 226.816L55.5072 228.977C56.3527 229.681 57.1511 230.245 57.8087 230.621C58.5132 230.996 59.1238 231.278 59.6405 231.419C60.1571 231.56 60.6268 231.56 61.0026 231.466C61.3783 231.372 61.6601 231.184 61.942 230.902C62.1768 230.621 62.3177 230.339 62.4116 230.057C62.5056 229.775 62.5056 229.493 62.4586 229.259C62.4117 229.024 62.3177 228.742 62.1298 228.507C61.942 228.366 61.7541 228.178 61.5192 227.943Z" fill="white"/>
<path d="M40.6149 221.646C40.7558 221.646 40.8497 221.646 40.9436 221.646C41.0376 221.646 41.1315 221.74 41.2255 221.834C41.3194 221.928 41.3664 222.069 41.4133 222.257C41.4603 222.445 41.5073 222.68 41.5542 222.961C41.6482 223.243 41.7421 223.525 41.883 223.854C42.0239 224.183 42.3057 224.511 42.6345 224.887C43.1042 225.357 43.6209 225.733 44.1375 225.92C44.6542 226.108 45.2178 226.202 45.7814 226.155C46.3451 226.108 46.9087 225.92 47.5193 225.592C48.1299 225.263 48.6935 224.84 49.2571 224.277C49.8677 223.713 50.3374 223.102 50.6662 222.539C50.995 221.928 51.2298 221.364 51.2768 220.848C51.3707 220.284 51.3238 219.768 51.1359 219.251C50.948 218.734 50.6662 218.265 50.2435 217.795C49.8208 217.372 49.445 217.09 49.0693 216.902C48.6935 216.715 48.3647 216.621 48.0829 216.527C47.8011 216.48 47.5193 216.433 47.3314 216.386C47.0966 216.386 46.9557 216.292 46.8617 216.198C46.7208 216.057 46.6739 215.869 46.7208 215.681L46.9087 214.554C47.8481 214.46 48.7405 214.648 49.6329 215.071C50.5253 215.493 51.2768 216.057 51.9813 216.762C52.5919 217.372 53.0147 218.077 53.2965 218.828C53.5783 219.58 53.6722 220.378 53.6253 221.177C53.5783 221.975 53.3434 222.821 52.9207 223.666C52.498 224.511 51.8874 225.31 51.0889 226.108C50.3374 226.813 49.5859 227.377 48.7405 227.752C47.895 228.128 47.0966 228.363 46.2511 228.41C45.4057 228.457 44.6072 228.316 43.7618 227.987C42.9633 227.658 42.1648 227.095 41.4603 226.343C40.8027 225.639 40.333 224.934 40.0043 224.183C39.6755 223.431 39.5815 222.633 39.5815 221.834L40.6149 221.646Z" fill="white"/>
<path d="M44.5653 208.168C45.2229 209.013 45.5517 209.859 45.4108 210.704C45.3168 211.549 44.8002 212.301 43.9077 213.053L37.2851 218.313L38.3184 219.628C38.4124 219.722 38.4593 219.863 38.4593 220.004C38.4593 220.145 38.3654 220.239 38.2245 220.38L37.473 220.99L35.8291 219.393L32.1655 221.601C32.0246 221.695 31.9307 221.695 31.7898 221.648C31.6488 221.601 31.5549 221.554 31.461 221.413L30.7095 220.474L34.42 217.515L31.9776 214.415L33.3397 213.334L35.7821 216.434L42.2638 211.268C42.7335 210.892 42.9684 210.516 43.0153 210.14C43.0623 209.765 42.9214 209.389 42.6866 209.013C42.5456 208.825 42.3578 208.684 42.2169 208.543C42.029 208.45 41.8881 208.356 41.7472 208.309C41.6063 208.262 41.4654 208.215 41.3714 208.168C41.2775 208.121 41.1835 208.074 41.1366 208.027C41.0426 207.933 41.0426 207.792 41.0896 207.604L41.5593 206.336C42.1229 206.43 42.6866 206.618 43.2032 206.947C43.6729 207.275 44.1426 207.651 44.5653 208.168Z" fill="white"/>
<path d="M32.4003 193.985C32.0245 193.28 31.5548 192.716 30.9912 192.294C30.4276 191.871 29.8639 191.589 29.2064 191.448C28.5488 191.307 27.8912 191.307 27.1867 191.401C26.4822 191.542 25.7776 191.777 25.0731 192.2L14.693 197.977L13.4248 195.675L23.8049 189.898C24.7913 189.335 25.7776 189.006 26.811 188.865C27.8443 188.724 28.7837 188.771 29.723 189.006C30.6624 189.241 31.5548 189.71 32.3533 190.321C33.1518 190.979 33.8563 191.824 34.4669 192.857C35.0305 193.891 35.4063 194.924 35.5002 196.004C35.6411 197.037 35.5472 198.024 35.2654 198.963C34.9836 199.903 34.5139 200.748 33.8093 201.547C33.1518 202.345 32.3063 203.003 31.32 203.519L20.9398 209.296L19.6717 206.995L30.0518 201.218C30.7563 200.842 31.3669 200.372 31.8366 199.809C32.3063 199.292 32.6821 198.681 32.87 198.071C33.1048 197.46 33.1518 196.803 33.1048 196.098C33.0109 195.394 32.776 194.689 32.4003 193.985Z" fill="white"/>
<path d="M15.5401 179.742C15.775 179.789 15.9159 179.883 16.0098 180.118C16.0568 180.259 16.0568 180.4 16.0568 180.588C16.0568 180.776 15.9629 181.011 15.9629 181.292C15.9629 181.574 15.9629 181.903 15.9629 182.232C16.0098 182.607 16.1038 182.983 16.2916 183.406C16.4325 183.782 16.6204 184.11 16.8553 184.392C17.0901 184.674 17.325 184.862 17.5598 185.003C17.7946 185.144 18.0765 185.238 18.3583 185.285C18.6401 185.332 18.8749 185.285 19.1567 185.144C19.4855 185.003 19.7204 184.815 19.8613 184.533C20.0022 184.251 20.0961 183.923 20.1431 183.547C20.1901 183.171 20.1901 182.748 20.1431 182.326C20.0961 181.903 20.0961 181.433 20.0492 180.964C20.0022 180.494 20.0022 180.024 20.0492 179.554C20.0492 179.085 20.1431 178.662 20.284 178.239C20.4249 177.817 20.6128 177.441 20.8946 177.112C21.1764 176.783 21.5991 176.502 22.1158 176.314C22.7264 176.079 23.29 175.985 23.9006 175.985C24.4642 175.985 25.0279 176.126 25.5915 176.408C26.1081 176.689 26.6248 177.065 27.0475 177.582C27.5172 178.098 27.893 178.756 28.1748 179.554C28.5505 180.447 28.6914 181.339 28.6914 182.138C28.6914 182.936 28.5505 183.735 28.3157 184.439L27.2354 184.251C27.0945 184.204 27.0006 184.157 26.9066 184.11C26.8127 184.064 26.7187 183.923 26.6718 183.782C26.6248 183.641 26.6248 183.453 26.6718 183.218C26.7187 182.983 26.7657 182.748 26.8127 182.467C26.8597 182.185 26.8597 181.809 26.8597 181.433C26.8597 181.057 26.7187 180.588 26.5309 180.071C26.343 179.648 26.1551 179.273 25.9203 178.991C25.6854 178.709 25.4036 178.474 25.1218 178.333C24.84 178.192 24.5582 178.098 24.2764 178.098C23.9945 178.098 23.7127 178.145 23.3839 178.239C23.0082 178.38 22.7734 178.568 22.6324 178.85C22.4915 179.132 22.3976 179.461 22.3506 179.836C22.3037 180.212 22.3037 180.635 22.3506 181.058C22.3976 181.527 22.3976 181.95 22.4446 182.42C22.4915 182.889 22.4915 183.359 22.4915 183.829C22.4915 184.298 22.3976 184.721 22.2567 185.144C22.1158 185.567 21.8809 185.942 21.5991 186.271C21.2703 186.6 20.8476 186.882 20.331 187.116C19.8613 187.304 19.3446 187.398 18.781 187.351C18.2174 187.304 17.7477 187.21 17.231 186.929C16.7144 186.694 16.2916 186.318 15.8689 185.801C15.4462 185.332 15.0704 184.721 14.7886 183.97C14.4598 183.124 14.272 182.326 14.272 181.527C14.272 180.729 14.4129 180.024 14.6947 179.367L15.5401 179.742Z" fill="white"/>
<path d="M15.2988 138.885C15.2988 138.744 15.3458 138.603 15.4397 138.462L16.473 137.335C17.4594 138.039 18.2578 138.979 18.8684 140.059C19.479 141.139 19.8548 142.502 19.9487 144.098C20.0427 145.508 19.9018 146.776 19.526 147.95C19.1502 149.124 18.5397 150.157 17.7412 151.05C16.9427 151.942 15.9564 152.647 14.7352 153.164C13.5609 153.727 12.1988 154.056 10.7428 154.15C9.28677 154.244 7.92467 154.15 6.6565 153.774C5.38834 153.398 4.30806 152.835 3.36868 152.036C2.4293 151.238 1.6778 150.251 1.0672 149.124C0.503571 147.95 0.127819 146.682 0.0338815 145.226C-0.0600564 143.817 0.0338815 142.549 0.409633 141.468C0.785385 140.388 1.30204 139.449 2.00658 138.556L3.27474 139.308C3.36868 139.355 3.46262 139.449 3.50958 139.496C3.55655 139.589 3.60352 139.683 3.60352 139.824C3.60352 139.965 3.60352 140.059 3.50958 140.2C3.41565 140.341 3.32171 140.482 3.22777 140.717C3.13383 140.905 2.99293 141.139 2.85202 141.374C2.71111 141.609 2.61717 141.938 2.52324 142.267C2.4293 142.595 2.33536 143.018 2.28839 143.441C2.24142 143.911 2.24142 144.427 2.28839 144.991C2.38233 146.024 2.61717 146.964 3.03989 147.809C3.46262 148.654 4.02624 149.359 4.73078 149.923C5.43531 150.486 6.28075 150.909 7.2671 151.191C8.25345 151.473 9.33373 151.567 10.508 151.473C11.7292 151.379 12.8094 151.097 13.7018 150.674C14.6412 150.251 15.3927 149.688 16.0033 149.077C16.6139 148.467 17.0366 147.668 17.3185 146.823C17.6003 145.977 17.6942 145.085 17.6003 144.098C17.5533 143.535 17.4594 143.018 17.3654 142.549C17.2715 142.079 17.1306 141.656 16.9427 141.28C16.7548 140.905 16.567 140.529 16.2851 140.247C16.0503 139.918 15.7215 139.589 15.3927 139.308C15.3927 139.167 15.2988 139.026 15.2988 138.885Z" fill="white"/>
<path d="M5.66485 128.321C5.71182 127.334 5.94667 126.395 6.32242 125.644C6.69817 124.845 7.21483 124.188 7.87239 123.671C8.52996 123.154 9.28146 122.732 10.1739 122.497C11.0663 122.262 12.0526 122.168 13.1329 122.215C14.2132 122.262 15.1996 122.497 16.045 122.825C16.8904 123.201 17.595 123.671 18.2056 124.235C18.7692 124.845 19.2389 125.55 19.5207 126.395C19.8025 127.241 19.8965 128.133 19.8495 129.166C19.8025 130.2 19.5677 131.092 19.1919 131.844C18.8162 132.642 18.2995 133.3 17.6419 133.816C16.9844 134.333 16.2329 134.756 15.3405 134.99C14.4481 135.272 13.4617 135.366 12.3814 135.272C11.3011 135.225 10.3148 134.99 9.46934 134.662C8.6239 134.286 7.8724 133.816 7.30877 133.206C6.74514 132.595 6.27545 131.89 5.99364 131.045C5.71182 130.247 5.61788 129.307 5.66485 128.321ZM17.9707 128.978C18.0647 127.616 17.6419 126.583 16.7965 125.831C15.9041 125.127 14.6829 124.704 13.039 124.61C11.3951 124.516 10.0799 124.798 9.14056 125.409C8.20118 126.019 7.68452 127.006 7.59058 128.368C7.54361 129.072 7.63755 129.683 7.82543 130.2C8.0133 130.716 8.34209 131.186 8.76481 131.515C9.18753 131.89 9.70419 132.172 10.3618 132.36C11.0193 132.548 11.7239 132.689 12.5223 132.736C13.3208 132.783 14.0723 132.736 14.7299 132.595C15.3874 132.454 15.9511 132.219 16.4207 131.937C16.8904 131.609 17.2192 131.233 17.501 130.716C17.7828 130.2 17.9238 129.683 17.9707 128.978Z" fill="white"/>
<path d="M20.3797 120.159L6.80566 117.669L7.08748 116.26C7.13445 115.931 7.36929 115.744 7.69807 115.697L9.20108 115.791C8.63745 115.086 8.2617 114.335 7.97989 113.536C7.69807 112.738 7.65111 111.845 7.83898 110.906C7.97989 110.154 8.21473 109.544 8.54352 109.027C8.8723 108.51 9.34199 108.088 9.85865 107.806C10.3753 107.524 10.9859 107.336 11.6435 107.242C12.301 107.148 13.0525 107.195 13.804 107.336L22.4463 108.933L22.0236 111.329L13.3813 109.732C12.348 109.544 11.5026 109.638 10.845 110.013C10.1874 110.389 9.76471 111.047 9.6238 111.986C9.48289 112.691 9.52986 113.395 9.76471 114.053C9.99955 114.71 10.3283 115.368 10.845 115.978L20.8494 117.81L20.3797 120.159Z" fill="white"/>
<path d="M24.6961 101.833C24.3673 102.866 23.8506 103.618 23.0991 103.993C22.3476 104.369 21.4083 104.416 20.328 104.087L12.2023 101.739L11.7326 103.336C11.6857 103.477 11.6387 103.571 11.4978 103.665C11.4039 103.759 11.263 103.759 11.0751 103.712L10.1357 103.43L10.5115 101.175L6.56606 99.4374C6.42516 99.3905 6.33122 99.2965 6.28425 99.1556C6.23728 99.0147 6.23728 98.9208 6.28425 98.7329L6.61303 97.5587L11.169 98.8738L12.2963 95.0693L13.9872 95.539L12.8599 99.3435L20.7977 101.645C21.3613 101.786 21.831 101.786 22.1598 101.598C22.4885 101.41 22.7234 101.081 22.8643 100.659C22.9582 100.424 22.9582 100.189 22.9582 100.001C22.9582 99.8132 22.9113 99.6253 22.8643 99.4844C22.8173 99.3435 22.7704 99.2026 22.7234 99.1087C22.6764 99.0147 22.6764 98.9208 22.6764 98.8269C22.7234 98.6859 22.8173 98.639 23.0052 98.545L24.3203 98.1693C24.5552 98.6859 24.743 99.2496 24.79 99.8602C24.9309 100.612 24.884 101.222 24.6961 101.833Z" fill="white"/>
<path d="M29.8981 87.0949L29.4754 88.0812C29.3814 88.3161 29.2875 88.457 29.1466 88.5509C29.0057 88.6448 28.8648 88.6918 28.6299 88.6448L27.3618 88.41C27.5496 88.8797 27.6906 89.3024 27.7845 89.7251C27.8784 90.1479 27.9724 90.5706 27.9724 90.9933C27.9724 91.416 27.9724 91.8387 27.8784 92.2615C27.7845 92.6842 27.6436 93.1539 27.4557 93.6236C27.2678 94.1402 26.986 94.5629 26.7042 94.9387C26.3754 95.3144 26.0466 95.5963 25.6239 95.8311C25.2012 96.019 24.7785 96.1599 24.2618 96.1599C23.7452 96.1599 23.2285 96.0659 22.6179 95.8311C22.1013 95.6432 21.6785 95.3144 21.3028 94.8447C20.927 94.3751 20.6922 93.7645 20.5982 93.013C20.5043 92.2615 20.5043 91.3221 20.6922 90.2418C20.8801 89.1615 21.2558 87.8933 21.8194 86.4373L20.8331 86.0146C19.8467 85.5919 19.0013 85.4979 18.2968 85.7328C17.5922 85.9676 17.1225 86.4843 16.7468 87.3297C16.5119 87.8933 16.418 88.363 16.418 88.7858C16.418 89.2085 16.418 89.5842 16.5119 89.96C16.5589 90.2888 16.6529 90.6175 16.6998 90.8524C16.7468 91.0872 16.7468 91.3221 16.6529 91.51C16.6059 91.6509 16.5119 91.7918 16.371 91.8387C16.2301 91.9327 16.0892 91.9796 15.9483 91.9796L15.0559 92.0736C14.6802 91.0872 14.4453 90.1009 14.4453 89.1615C14.4453 88.2221 14.6332 87.2358 15.0559 86.2494C15.3377 85.5449 15.7135 84.9343 16.1832 84.4646C16.6529 83.9949 17.1695 83.6661 17.7331 83.4783C18.2968 83.2904 18.9543 83.1964 19.6119 83.2434C20.2695 83.2904 20.974 83.4783 21.6785 83.7601L29.8981 87.0949ZM26.1406 92.4024C26.2815 92.0266 26.4224 91.6509 26.4694 91.2751C26.5163 90.8994 26.5163 90.5706 26.5163 90.1948C26.5163 89.8191 26.4224 89.4903 26.3285 89.1615C26.2345 88.8327 26.0936 88.457 25.9057 88.0812L23.2755 87.0009C22.8528 88.0342 22.5709 88.9267 22.43 89.7251C22.2891 90.5236 22.1952 91.1812 22.2422 91.6978C22.2891 92.2615 22.3831 92.6842 22.5709 93.013C22.7588 93.3417 23.0406 93.5766 23.4164 93.7175C23.7452 93.8584 24.0739 93.9054 24.3558 93.9054C24.6376 93.9054 24.9194 93.8114 25.1542 93.7175C25.3891 93.5766 25.577 93.4357 25.7648 93.2008C25.9057 92.966 26.0466 92.6842 26.1406 92.4024Z" fill="white"/>
<path d="M25.7295 70.5907C25.7764 70.6847 25.8234 70.8256 25.8234 70.8726C25.8234 70.9665 25.8234 71.0604 25.7295 71.2013C25.6825 71.3423 25.5416 71.4362 25.3537 71.5301C25.1658 71.6241 24.978 71.718 24.7431 71.9059C24.5083 72.0938 24.2734 72.2816 23.9916 72.5165C23.7098 72.7513 23.475 73.1271 23.2401 73.5498C22.9113 74.1604 22.7704 74.724 22.7235 75.2876C22.6765 75.8513 22.7704 76.4149 23.0053 76.9316C23.2401 77.4482 23.6159 77.9649 24.0856 78.3876C24.5552 78.8573 25.1658 79.28 25.8704 79.6558C26.6219 80.0315 27.3264 80.3133 27.984 80.4542C28.6415 80.5951 29.2521 80.5951 29.8158 80.5012C30.3794 80.4073 30.8491 80.1724 31.3188 79.8436C31.7415 79.5148 32.1172 79.0921 32.3991 78.5285C32.6809 78.0118 32.8687 77.5422 32.9157 77.1664C32.9627 76.7437 32.9627 76.4149 32.9627 76.0861C32.9157 75.8043 32.8687 75.5225 32.8218 75.3346C32.7748 75.1467 32.7748 74.9589 32.8687 74.818C32.9627 74.6301 33.1036 74.5361 33.2915 74.5361L34.3718 74.3483C34.7475 75.2407 34.8414 76.1331 34.7475 77.0725C34.6066 78.0118 34.3248 78.9512 33.8551 79.8436C33.4324 80.5951 32.9157 81.2527 32.3051 81.7224C31.6945 82.239 30.943 82.5678 30.1915 82.7557C29.393 82.9436 28.5476 82.9905 27.6082 82.8496C26.6688 82.7087 25.7295 82.38 24.7431 81.8633C23.8507 81.3936 23.0522 80.783 22.4416 80.1254C21.831 79.4679 21.3614 78.7164 21.0326 77.9649C20.7508 77.1664 20.6098 76.3679 20.7038 75.4755C20.7508 74.5831 21.0326 73.6907 21.5492 72.7983C22.0189 71.9528 22.5356 71.2483 23.1931 70.7786C23.8037 70.262 24.5083 69.8862 25.3067 69.6514L25.7295 70.5907Z" fill="white"/>
<path d="M39.7777 70.1631C39.1671 71.0555 38.4626 71.6191 37.6171 71.76C36.7717 71.9009 35.8793 71.6661 34.9399 71.0555L27.8945 66.4056L26.9552 67.7677C26.8612 67.9086 26.7673 67.9555 26.6264 68.0025C26.4855 68.0495 26.3446 68.0025 26.2037 67.9086L25.4052 67.3919L26.4385 65.3722L23.1976 62.5541C23.1037 62.4602 23.0567 62.3662 23.0098 62.2253C23.0098 62.0844 23.0098 61.9435 23.1037 61.8496L23.7613 60.8163L27.7067 63.4465L29.8672 60.1587L31.3233 61.145L29.1627 64.4329L36.0671 68.9888C36.5368 69.3176 37.0065 69.4116 37.3823 69.3646C37.758 69.2707 38.0868 69.0828 38.3216 68.707C38.4626 68.4722 38.5565 68.2843 38.6035 68.0964C38.6504 67.9086 38.6974 67.7207 38.6974 67.5798C38.6974 67.4389 38.6974 67.298 38.6974 67.1571C38.6974 67.0631 38.6974 66.9692 38.7444 66.8752C38.7913 66.7813 38.9322 66.7343 39.1201 66.7343L40.4822 66.7813C40.5762 67.3449 40.5762 67.9555 40.4352 68.5661C40.2943 69.1767 40.1065 69.5994 39.7777 70.1631Z" fill="white"/>
<path d="M49.5468 54.2036C50.1104 53.593 50.4862 52.9824 50.721 52.3248C50.9559 51.6673 51.0498 51.0097 51.0029 50.3521C50.9559 49.6946 50.768 49.037 50.3923 48.4264C50.0635 47.8158 49.5938 47.2052 48.9832 46.6416L40.2939 38.5629L42.0788 36.6372L50.768 44.7159C51.6135 45.4674 52.2241 46.3128 52.6937 47.2522C53.1634 48.1916 53.3983 49.1309 53.4922 50.0703C53.5392 51.0567 53.3983 51.9961 53.0225 52.9824C52.6468 53.9688 52.0831 54.9081 51.2377 55.7536C50.4392 56.646 49.5468 57.3035 48.6074 57.7263C47.6681 58.149 46.6817 58.3838 45.7423 58.3838C44.756 58.3838 43.8166 58.196 42.8772 57.8202C41.9379 57.4445 41.0454 56.8339 40.2 56.0824L31.5107 48.0037L33.2956 46.078L41.9848 54.1566C42.5954 54.7203 43.206 55.143 43.8636 55.4248C44.5211 55.7066 45.1787 55.8945 45.8363 55.8945C46.4938 55.8945 47.1514 55.7536 47.762 55.4718C48.3726 55.2369 48.9832 54.8142 49.5468 54.2036Z" fill="white"/>
<path d="M57.8579 33.7868C57.9049 34.0216 57.8579 34.2095 57.6701 34.3504C57.5761 34.4443 57.4352 34.4913 57.2004 34.5383C57.0125 34.5852 56.7777 34.6322 56.4958 34.6792C56.214 34.7261 55.9322 34.867 55.6034 35.008C55.2747 35.1489 54.9459 35.3837 54.5701 35.6655C54.2413 35.9473 54.0065 36.1822 53.8186 36.511C53.6307 36.7928 53.4898 37.0746 53.4429 37.3564C53.3959 37.6382 53.3959 37.92 53.4429 38.2018C53.4898 38.4837 53.6307 38.7185 53.8186 38.9064C54.0535 39.1882 54.2883 39.3291 54.6171 39.3761C54.9459 39.423 55.2747 39.423 55.6504 39.3291C56.0262 39.2352 56.4019 39.1412 56.8246 38.9533C57.2473 38.7655 57.6701 38.6246 58.0928 38.4367C58.5155 38.2488 58.9852 38.1079 59.4079 37.967C59.8306 37.8261 60.3003 37.7791 60.7231 37.7791C61.1458 37.7791 61.5685 37.8731 61.9912 38.014C62.4139 38.2018 62.7897 38.4837 63.1185 38.9064C63.5412 39.3761 63.823 39.9397 63.9639 40.5033C64.1518 41.0669 64.1518 41.6306 64.1048 42.2412C64.0578 42.8518 63.776 43.4154 63.4473 43.979C63.1185 44.5426 62.6018 45.1063 61.9442 45.6699C61.1927 46.2805 60.4412 46.7032 59.6428 46.985C58.8443 47.2199 58.0928 47.3608 57.3413 47.3138L57.2004 46.2335C57.2004 46.0926 57.2004 45.9517 57.2473 45.8578C57.2943 45.7638 57.3413 45.6229 57.4822 45.529C57.6231 45.4351 57.764 45.3411 57.9988 45.3411C58.2337 45.3411 58.4685 45.2942 58.7973 45.2472C59.1261 45.2002 59.4079 45.1063 59.7837 44.9654C60.1594 44.8245 60.5352 44.5896 60.9579 44.2139C61.3336 43.9321 61.6155 43.6033 61.8033 43.2745C61.9912 42.9457 62.1321 42.6169 62.1791 42.3351C62.2261 42.0063 62.2261 41.7245 62.1321 41.4427C62.0382 41.1609 61.8973 40.8791 61.7094 40.6442C61.4745 40.3624 61.1927 40.1745 60.864 40.1276C60.5352 40.0806 60.2064 40.0806 59.8306 40.1745C59.4549 40.2685 59.0791 40.3624 58.6564 40.5503C58.2337 40.7382 57.811 40.8791 57.3883 41.0669C56.9655 41.2548 56.4958 41.3957 56.0731 41.5366C55.6504 41.6775 55.1807 41.7245 54.758 41.7245C54.3353 41.7245 53.9126 41.6306 53.4898 41.4427C53.0671 41.2548 52.6914 40.926 52.3156 40.4564C51.9868 40.0336 51.752 39.6109 51.6111 39.0942C51.4702 38.5776 51.4232 38.0609 51.5171 37.4973C51.6111 36.9337 51.7989 36.417 52.1277 35.8534C52.4565 35.2898 52.9262 34.7731 53.5368 34.2564C54.2413 33.6928 54.9459 33.2701 55.6974 33.0353C56.4489 32.8004 57.1534 32.7065 57.9049 32.7534L57.8579 33.7868Z" fill="white"/>
</svg>
