<svg width="191" height="40" viewBox="0 0 191 40" fill="none" xmlns="http://www.w3.org/2000/svg">
<path d="M0 40V0L15.5251 15.2347L14.1644 16.5652L1.92321 4.55296V35.447L29.8482 8.04435L31.2089 9.37957L0 40Z" fill="#6C514B"/>
<path d="M32.6369 24.77L48.162 40V0L16.9531 30.6204L18.3138 31.9557L46.2388 4.55296V35.447L33.9976 23.4348L32.6369 24.77Z" fill="#6C514B"/>
<path d="M61.3237 26.6666V14.5585H63.2649V20.4396L68.8238 14.5585H71.2944L66.5296 19.5747L71.6473 26.6666H69.2649L65.2061 20.9585L63.2649 23.0341V26.6666H61.3237Z" fill="#6C514B"/>
<path d="M78.6986 26.6666V14.5585H80.6398V26.6666H78.6986Z" fill="#6C514B"/>
<path d="M91.7499 26.6666V16.3747H88.044V14.5585H97.397V16.3747H93.6911V26.6666H91.7499Z" fill="#6C514B"/>
<path d="M104.814 26.6666V14.5585H106.755V19.6612H112.844V14.5585H114.785V26.6666H112.844V21.3909H106.755V26.6666H104.814Z" fill="#6C514B"/>
<path d="M132.69 20.3531L135.072 23.2071C135.225 22.9534 135.343 22.7228 135.425 22.5152C135.66 21.9963 135.778 21.4197 135.778 20.7855H137.366C137.366 21.6273 137.172 22.5095 136.784 23.432C136.643 23.7779 136.455 24.1354 136.219 24.5044C136.325 24.6428 136.455 24.7754 136.608 24.9023C136.96 25.1559 137.272 25.2828 137.543 25.2828C137.625 25.2828 137.749 25.2713 137.913 25.2482L138.072 25.1963V26.7531L137.913 26.805C137.749 26.828 137.537 26.8396 137.278 26.8396C136.702 26.8396 136.184 26.6378 135.725 26.2341C135.513 26.0612 135.325 25.8594 135.16 25.6287C134.913 25.8824 134.619 26.1015 134.278 26.286C133.525 26.7127 132.702 26.926 131.808 26.926C130.725 26.926 129.849 26.632 129.178 26.0439C128.519 25.4442 128.19 24.7005 128.19 23.8125C128.19 22.7978 128.584 21.9271 129.372 21.2006C129.749 20.8547 130.149 20.5722 130.572 20.3531C130.255 20.0417 129.96 19.7015 129.69 19.3325C129.102 18.5253 128.808 17.7988 128.808 17.1531C128.808 16.3574 129.09 15.7001 129.655 15.1812C130.231 14.6507 130.978 14.3855 131.896 14.3855C132.766 14.3855 133.484 14.6507 134.049 15.1812C134.613 15.7001 134.896 16.3286 134.896 17.0666C134.896 17.8161 134.525 18.6003 133.784 19.419C133.478 19.7534 133.113 20.0648 132.69 20.3531ZM134.102 24.5044L131.543 21.3909C131.26 21.5754 130.996 21.7945 130.749 22.0482C130.219 22.5902 129.955 23.1495 129.955 23.726C129.955 24.1758 130.137 24.5621 130.502 24.885C130.866 25.2078 131.331 25.3693 131.896 25.3693C132.508 25.3693 133.049 25.2251 133.519 24.9369C133.696 24.8331 133.89 24.6889 134.102 24.5044ZM131.808 19.3152C132.043 19.0961 132.278 18.854 132.513 18.5887C132.984 18.0352 133.219 17.5567 133.219 17.1531C133.219 16.8071 133.096 16.5188 132.849 16.2882C132.602 16.0576 132.284 15.9423 131.896 15.9423C131.46 15.9423 131.113 16.0576 130.855 16.2882C130.608 16.5073 130.484 16.7956 130.484 17.1531C130.484 17.5682 130.702 18.0468 131.137 18.5887C131.313 18.8078 131.537 19.05 131.808 19.3152Z" fill="#6C514B"/>
<path d="M152.368 26.6666V14.5585H154.309V20.4396L159.868 14.5585H162.338L157.574 19.5747L162.691 26.6666H160.309L156.25 20.9585L154.309 23.0341V26.6666H152.368Z" fill="#6C514B"/>
<path d="M169.743 26.6666V14.5585H171.684V26.6666H169.743Z" fill="#6C514B"/>
<path d="M180.5 26.6666V14.5585H182.265L189.059 23.4666V14.5585H191V26.6666H189.235L182.441 17.7585V26.6666H180.5Z" fill="#6C514B"/>
</svg>
