<svg width="18" height="18" viewBox="0 0 18 18" fill="none" xmlns="http://www.w3.org/2000/svg">
<path d="M12.6377 0H5.3623C2.40551 0 0 2.40551 0 5.3623V12.6377C0 15.5945 2.40551 18 5.3623 18H12.6377C15.5945 18 18 15.5945 18 12.6377V5.3623C18 2.40551 15.5945 0 12.6377 0ZM16.1892 12.6377C16.1892 14.5991 14.5991 16.1892 12.6377 16.1892H5.3623C3.40088 16.1892 1.8108 14.5991 1.8108 12.6377V5.3623C1.8108 3.40084 3.40088 1.8108 5.3623 1.8108H12.6377C14.5991 1.8108 16.1892 3.40084 16.1892 5.3623V12.6377Z" fill="#CDBEB9"/>
<path d="M8.99968 4.34454C6.43267 4.34454 4.34424 6.43297 4.34424 8.99995C4.34424 11.5669 6.43267 13.6554 8.99968 13.6554C11.5667 13.6554 13.6551 11.567 13.6551 8.99995C13.6551 6.43294 11.5667 4.34454 8.99968 4.34454ZM8.99968 11.8446C7.42861 11.8446 6.15504 10.571 6.15504 8.99998C6.15504 7.42892 7.42865 6.15534 8.99968 6.15534C10.5707 6.15534 11.8443 7.42892 11.8443 8.99998C11.8443 10.571 10.5707 11.8446 8.99968 11.8446Z" fill="#CDBEB9"/>
<path d="M13.6639 5.49512C14.28 5.49512 14.7794 4.99567 14.7794 4.37958C14.7794 3.76348 14.28 3.26404 13.6639 3.26404C13.0478 3.26404 12.5483 3.76348 12.5483 4.37958C12.5483 4.99567 13.0478 5.49512 13.6639 5.49512Z" fill="#CDBEB9"/>
</svg>
